<svg width="124" height="124" viewBox="0 0 124 124" fill="none" xmlns="http://www.w3.org/2000/svg">
<path d="M59.2469 115.86C58.5983 115.633 57.9949 115.293 57.4646 114.856L48.0631 107.148C47.2479 106.479 46.322 105.957 45.3272 105.606C44.3311 105.255 43.2807 105.083 42.2247 105.097L30.0637 105.224C28.6781 105.239 27.3314 104.766 26.2602 103.888C25.1889 103.01 24.4615 101.783 24.2059 100.422L21.962 88.4818C21.5706 86.3958 20.4557 84.5139 18.8132 83.1667L9.40781 75.458C8.33664 74.5791 7.60974 73.3514 7.35483 71.9907C7.09992 70.6299 7.33331 69.2232 8.01399 68.0177L13.9827 57.4343C15.0242 55.5853 15.3801 53.4286 14.9877 51.3431L12.7432 39.4064C12.4879 38.0463 12.7205 36.6402 13.4001 35.4347C14.0797 34.2292 15.1628 33.3015 16.4594 32.8144L27.845 28.5428C29.8338 27.7953 31.495 26.3717 32.5366 24.5221L38.5053 13.9387C39.186 12.7349 40.2693 11.8091 41.5653 11.3235C42.8614 10.8378 44.2874 10.8234 45.5935 11.2826L57.0694 15.3182C59.0738 16.0231 61.2626 16.0002 63.2513 15.2536L74.6369 10.9819C75.9333 10.4959 77.3598 10.4813 78.6662 10.9407C79.9727 11.4002 81.0756 12.3044 81.7815 13.4946L87.9815 23.9517C89.0637 25.7772 90.755 27.1639 92.7584 27.8686L104.234 31.9042C105.543 32.3638 106.647 33.2693 107.354 34.4617C108.06 35.654 108.323 37.0567 108.095 38.423L106.112 50.4267C105.774 52.511 106.179 54.648 107.255 56.4656L113.455 66.8989C114.161 68.0901 114.424 69.4914 114.198 70.8566C113.972 72.2218 113.272 73.4637 112.22 74.3642L102.992 82.2698C101.378 83.6509 100.305 85.5557 99.9584 87.6495L97.9776 99.6339C97.7517 100.999 97.0515 102.241 96 103.141C94.9485 104.041 93.6128 104.543 92.2275 104.558L80.062 104.688C77.9379 104.71 75.8897 105.478 74.2768 106.858L65.0448 114.763C64.2594 115.437 63.3102 115.891 62.2927 116.082C61.2752 116.272 60.2253 116.192 59.2486 115.848L59.2469 115.86Z" fill="#D9FF43"/>
<path d="M78.149 12.4039C77.1889 12.0683 76.1415 12.0796 75.1891 12.4357L63.8075 16.708C61.4711 17.5875 58.8987 17.6157 56.543 16.7876L45.0671 12.752C44.1081 12.4149 43.061 12.426 42.1098 12.7834C41.1585 13.1409 40.3639 13.8217 39.8657 14.7064L33.9009 25.2904C32.6753 27.4584 30.7254 29.1268 28.3922 30.0038L17.0255 34.2822C16.0751 34.6399 15.2814 35.3205 14.7836 36.2046C14.2858 37.0886 14.1157 38.1196 14.3032 39.1167L16.5393 51.0562C16.9998 53.505 16.5816 56.0373 15.3581 58.2082L9.39326 68.7922C8.89481 69.6761 8.72418 70.7073 8.9113 71.7047C9.09842 72.7021 9.63135 73.6019 10.4165 74.2461L19.8219 81.9549C21.7481 83.5368 23.0564 85.7444 23.5181 88.1916L25.7619 100.132C25.9018 100.878 26.2359 101.573 26.7305 102.149C27.2251 102.724 27.8628 103.16 28.5793 103.411C29.0533 103.58 29.5534 103.663 30.0564 103.657L42.2219 103.526C44.7154 103.505 47.1378 104.358 49.0679 105.935L58.4694 113.643C58.8585 113.965 59.302 114.214 59.7788 114.38C60.4945 114.631 61.2638 114.69 62.0095 114.551C62.7551 114.412 63.4508 114.079 64.0267 113.586L73.2587 105.681C75.1519 104.057 77.556 103.148 80.052 103.112L92.2169 102.985C93.233 102.975 94.2127 102.607 94.9841 101.947C95.7555 101.287 96.2692 100.376 96.435 99.3748L98.4158 87.3905C98.8223 84.9332 100.083 82.6979 101.976 81.0769L111.208 73.1719C111.979 72.511 112.492 71.5999 112.657 70.5985C112.822 69.5971 112.628 68.5696 112.11 67.6963L105.914 57.2397C104.645 55.0956 104.173 52.5741 104.58 50.1177L106.561 38.1334C106.728 37.1316 106.535 36.1031 106.018 35.2288C105.5 34.3545 104.69 33.6903 103.731 33.3531L92.2549 29.3176C89.9032 28.4884 87.9177 26.8607 86.6451 24.7186L80.4489 14.2621C79.9298 13.3895 79.1212 12.7258 78.1635 12.3862L78.149 12.4039ZM79.2035 9.42583C80.8592 10.0076 82.2569 11.1531 83.1514 12.6613L89.3515 23.1184C90.2451 24.6279 91.6428 25.7749 93.2988 26.3577L104.771 30.3888C106.429 30.9708 107.828 32.1178 108.723 33.6281C109.618 35.1385 109.951 36.9153 109.663 38.6461L107.68 50.6499C107.395 52.3781 107.728 54.1517 108.621 55.6595L114.81 66.111C115.704 67.6198 116.037 69.3946 115.751 71.1238C115.465 72.853 114.578 74.426 113.246 75.5666L104.009 83.4749C102.677 84.6145 101.791 86.1881 101.508 87.9176L99.5269 99.9019C99.2413 101.63 98.3558 103.201 97.0257 104.342C95.6956 105.483 94.0057 106.119 92.2524 106.14L80.0908 106.271C78.335 106.287 76.6417 106.923 75.3103 108.066L66.0782 115.971C64.7458 117.112 63.0532 117.747 61.2976 117.766C59.5421 117.784 57.836 117.184 56.4791 116.071L47.066 108.361C45.7089 107.248 44.0029 106.649 42.2474 106.667L30.0826 106.794C28.3289 106.813 26.6245 106.214 25.2681 105.103C23.9117 103.992 22.9901 102.44 22.6647 100.719L20.4209 88.7783C20.0971 87.0553 19.1758 85.5011 17.8188 84.3886L8.41344 76.6799C7.05246 75.5696 6.127 74.0156 5.7999 72.2915C5.4728 70.5673 5.76503 68.7834 6.62516 67.2537L12.59 56.6697C13.4518 55.1422 13.7469 53.3599 13.4232 51.6361L11.1794 39.6955C10.8553 37.9719 11.1499 36.1895 12.0114 34.6618C12.873 33.134 14.2463 31.9587 15.8899 31.3422L27.2716 27.07C28.9149 26.4533 30.2877 25.278 31.1489 23.7504L37.1137 13.1664C37.9747 11.6396 39.3468 10.4646 40.9892 9.84787C42.6316 9.23112 44.4393 9.21196 46.0949 9.79375L57.5714 13.8254C59.2251 14.4136 61.0337 14.3992 62.6773 13.7847L74.0629 9.51304C75.7096 8.88633 77.5254 8.86171 79.189 9.44353L79.2035 9.42583Z" fill="#252A2E"/>
<path d="M59.1851 109.084C58.1733 108.729 57.2791 108.101 56.6005 107.272L51.7696 101.403C50.7213 100.131 49.3443 99.1689 47.7879 98.6221C46.2315 98.0753 44.5552 97.9642 42.9405 98.3011L35.4947 99.8533C34.4465 100.071 33.3588 100.001 32.3469 99.6511C31.2071 99.2435 30.216 98.5032 29.5024 97.5263C28.7683 96.5097 28.3807 95.2846 28.3969 94.0315L28.4715 86.411C28.4865 84.7636 28.0496 83.1433 27.2083 81.7257C26.367 80.3082 25.1533 79.1476 23.6988 78.3696L16.9851 74.7662C16.2096 74.3501 15.5373 73.7658 15.0174 73.0563C14.4975 72.3469 14.1433 71.5302 13.9807 70.6662C13.8181 69.8023 13.8514 68.9131 14.0779 68.0638C14.3045 67.2145 14.7187 66.4268 15.29 65.7584L20.2616 59.9464C21.3303 58.6963 22.0367 57.1782 22.3045 55.556C22.5723 53.9339 22.3913 52.2693 21.781 50.742L18.9503 43.6453C18.6245 42.8288 18.4857 41.9499 18.5444 41.0731C18.603 40.1962 18.8575 39.3436 19.2892 38.578C19.7209 37.8123 20.3188 37.153 21.039 36.6484C21.7593 36.1437 22.5836 35.8066 23.4515 35.6618L30.9828 34.3919C32.6099 34.1198 34.1312 33.4081 35.3818 32.3338C36.6324 31.2596 37.5645 29.8638 38.0772 28.2978L40.4686 21.0466C40.7116 20.3036 41.1013 19.6169 41.6147 19.0269C42.128 18.437 42.7545 17.9558 43.4573 17.6118C44.1526 17.2697 44.9085 17.0671 45.682 17.0155C46.4743 16.9588 47.2699 17.0666 48.0185 17.3321C48.3856 17.4616 48.7391 17.6266 49.0739 17.8248L55.6265 21.6861C56.1317 21.9865 56.6659 22.2353 57.221 22.4288V22.4288C58.4955 22.8773 59.8544 23.0347 61.1977 22.8894C62.5409 22.7442 63.8343 22.3 64.9828 21.5895L71.4514 17.5848C72.2004 17.1209 73.044 16.8307 73.9203 16.7355C74.7965 16.6403 75.6831 16.7427 76.5146 17.035C77.3462 17.3273 78.1016 17.8021 78.7252 18.4245C79.3488 19.0469 79.8248 19.8009 80.1181 20.6312L82.6361 27.8009C83.0894 29.075 83.8223 30.2317 84.7813 31.1864C85.7402 32.141 86.9008 32.8693 88.1781 33.318C88.7322 33.5106 89.3034 33.6506 89.884 33.736L97.4175 34.8225C97.8012 34.8781 98.1786 34.9709 98.5444 35.0996C99.2917 35.3604 99.9773 35.772 100.559 36.3088C101.128 36.8326 101.59 37.4625 101.918 38.1632C102.251 38.8714 102.439 39.6394 102.469 40.4213C102.499 41.2033 102.371 41.9832 102.093 42.7147L99.4159 49.8565C98.8386 51.3969 98.6939 53.0658 98.9974 54.6827C99.3009 56.2997 100.041 57.8032 101.138 59.0309L106.221 64.7223C106.807 65.3784 107.239 66.1571 107.484 67.0013C107.729 67.8456 107.782 68.7338 107.639 69.601C107.495 70.4681 107.159 71.2921 106.655 72.0124C106.151 72.7327 105.492 73.3311 104.726 73.7637L98.071 77.5228C96.6378 78.3321 95.4535 79.5173 94.6459 80.9501C93.8383 82.383 93.4381 84.0092 93.4886 85.653L93.7177 93.342C93.7449 94.2211 93.5745 95.0949 93.219 95.8994C92.8635 96.7038 92.3321 97.4184 91.6636 97.9907C90.9952 98.563 90.2069 98.9783 89.3565 99.2063C88.5061 99.4342 87.6152 99.469 86.7495 99.3079L79.2573 97.9141C77.6365 97.6135 75.9644 97.7613 74.422 98.3414C72.8796 98.9216 71.5256 99.9121 70.5066 101.206L65.7871 107.194C65.0148 108.18 63.9448 108.892 62.7355 109.223C61.5655 109.537 60.3274 109.489 59.1851 109.084V109.084Z" fill="#F6DDFF"/>
<path d="M75.9858 18.5386C75.377 18.3226 74.7273 18.2465 74.0851 18.3159C73.4428 18.3854 72.8246 18.5987 72.2765 18.9399L65.8028 22.9518C64.1579 23.97 62.2654 24.5194 60.3299 24.5404C58.3945 24.5613 56.49 24.0531 54.8227 23.0708L48.2656 19.2128C48.0194 19.0669 47.7591 18.9462 47.4886 18.8524C46.9467 18.6641 46.3727 18.5853 45.8001 18.6208C45.2276 18.6562 44.6678 18.8052 44.1535 19.059C43.638 19.3113 43.1784 19.6645 42.8021 20.0976C42.4258 20.5306 42.1404 21.0347 41.9628 21.58L39.5714 28.8313C38.9699 30.6667 37.8759 32.3019 36.4083 33.5591C34.9407 34.8164 33.1558 35.6474 31.2479 35.9619L23.7166 37.2318C23.0794 37.3377 22.4741 37.5848 21.9452 37.9551C21.4163 38.3254 20.9773 38.8094 20.6605 39.3716C20.3437 39.9337 20.1571 40.5597 20.1145 41.2034C20.0719 41.8472 20.1743 42.4923 20.4142 43.0915L23.2449 50.1882C23.9648 51.9803 24.1789 53.9351 23.8638 55.8398C23.5488 57.7446 22.7167 59.5264 21.458 60.9913L16.4904 66.8039C16.0715 67.294 15.7679 67.8716 15.6018 68.4943C15.4358 69.117 15.4114 69.769 15.5306 70.4025C15.6498 71.0359 15.9095 71.6347 16.2907 72.1549C16.6718 72.6751 17.1647 73.1036 17.7332 73.4088L24.447 77.0122C26.154 77.9243 27.5777 79.2869 28.563 80.9512C29.5482 82.6156 30.0573 84.5179 30.0345 86.4509L29.9644 94.0681C29.9544 94.9714 30.2285 95.8552 30.7479 96.5949C31.2674 97.3347 32.0061 97.8931 32.8599 98.1916C33.6016 98.4529 34.4013 98.5035 35.1699 98.3377L42.6157 96.7855C44.5115 96.3899 46.4797 96.5201 48.3071 97.1621C50.1344 97.8041 51.7511 98.9334 52.9819 100.427L57.8127 106.296C58.2232 106.794 58.7404 107.195 59.3262 107.467C59.912 107.74 60.5515 107.878 61.1977 107.871C61.8438 107.865 62.4802 107.713 63.0599 107.428C63.6396 107.144 64.148 106.732 64.5476 106.225L69.2699 100.218C70.4636 98.6968 72.0529 97.5323 73.8644 96.8515C75.6758 96.1707 77.6399 95.9999 79.5423 96.3576L87.0351 97.7475C87.6696 97.8653 88.3224 97.8397 88.9456 97.6726C89.5689 97.5056 90.1467 97.2012 90.6366 96.7819C91.1266 96.3627 91.5163 95.8391 91.7771 95.2497C92.0379 94.6603 92.1632 94.02 92.1438 93.3757L91.9079 85.7333C91.8492 83.8044 92.3191 81.8964 93.2669 80.2151C94.2147 78.5338 95.6043 77.1432 97.2859 76.1932L103.948 72.4153C104.509 72.0977 104.992 71.6586 105.361 71.1302C105.73 70.6019 105.976 69.9976 106.081 69.3619C106.185 68.7261 106.146 68.0749 105.966 67.4561C105.786 66.8372 105.47 66.2665 105.04 65.7857L99.9542 60.1097C98.664 58.6702 97.7936 56.9051 97.4376 55.0064C97.0816 53.1077 97.2536 51.1481 97.9349 49.3406L100.612 42.1989C100.817 41.6631 100.911 41.0916 100.889 40.5185C100.867 39.9455 100.729 39.3827 100.484 38.864C100.241 38.3447 99.8985 37.8784 99.4749 37.492C99.0513 37.1055 98.5553 36.8065 98.0156 36.6122C97.745 36.5196 97.4664 36.452 97.1834 36.4102L89.6499 35.3237C88.9676 35.2231 88.2964 35.0578 87.6454 34.8299C86.1475 34.3059 84.7867 33.452 83.664 32.3314C82.5414 31.2108 81.6855 29.8523 81.16 28.3567L78.642 21.187C78.4285 20.5738 78.0785 20.0169 77.6184 19.5582C77.1584 19.0995 76.6002 18.7509 75.9858 18.5386ZM77.0304 15.5749C78.085 15.9428 79.043 16.5435 79.8331 17.3323C80.6233 18.1211 81.2251 19.0776 81.5939 20.1307L84.112 27.3004C84.5651 28.5841 85.3614 29.7195 86.4145 30.5837C87.4676 31.4479 88.7373 32.0079 90.0861 32.2029L97.6157 33.2888C98.72 33.4483 99.7745 33.8528 100.702 34.4728C101.629 35.0928 102.406 35.9124 102.974 36.8713C103.543 37.8303 103.889 38.9042 103.987 40.0142C104.085 41.1241 103.933 42.2418 103.542 43.2852L100.865 50.4269C100.388 51.6994 100.268 53.078 100.518 54.4138C100.769 55.7496 101.38 56.9918 102.286 58.0061L107.369 63.6975C108.112 64.5283 108.659 65.5146 108.97 66.584C109.281 67.6534 109.349 68.7787 109.167 69.8773C108.986 70.9759 108.56 72.0199 107.922 72.9326C107.284 73.8453 106.449 74.6036 105.479 75.1517L98.8236 78.9108C97.6421 79.5816 96.6664 80.5618 96.002 81.7458C95.3375 82.9299 95.0094 84.2727 95.053 85.6296L95.2857 93.2676C95.32 94.3807 95.1041 95.4873 94.6541 96.506C94.204 97.5247 93.5311 98.4296 92.6848 99.1544C91.8385 99.8792 90.8404 100.405 89.7636 100.694C88.6868 100.983 87.5588 101.028 86.4624 100.824L78.9702 99.4306C77.6314 99.1822 76.2502 99.3043 74.9762 99.7835C73.7021 100.263 72.5836 101.081 71.7418 102.149L67.0224 108.137C66.3328 109.016 65.4543 109.729 64.4517 110.223C63.4491 110.717 62.348 110.98 61.2298 110.993C60.1116 111.005 59.0049 110.766 57.9913 110.294C56.9777 109.822 56.0831 109.128 55.3737 108.265L50.539 102.396C49.6731 101.345 48.5358 100.551 47.2504 100.099C45.965 99.6474 44.5804 99.5556 43.2468 99.8336L35.8011 101.386C34.7084 101.614 33.5785 101.594 32.4943 101.328C31.4102 101.062 30.3995 100.556 29.5366 99.8489C28.6736 99.1414 27.9805 98.2497 27.5081 97.2394C27.0358 96.2292 26.7963 95.1261 26.8072 94.0113L26.8812 86.3947C26.898 85.0345 26.542 83.6955 25.8516 82.5227C25.1612 81.3498 24.1628 80.3878 22.9644 79.7408L16.2507 76.1374C15.2666 75.6104 14.4132 74.8698 13.7535 73.9701C13.0937 73.0703 12.6444 72.0343 12.4385 70.9383C12.2327 69.8424 12.2756 68.7144 12.564 67.6373C12.8525 66.5603 13.3791 65.5617 14.1053 64.715L19.0716 58.938C19.9549 57.9052 20.5388 56.6509 20.7601 55.3105C20.9814 53.9702 20.8319 52.5948 20.3276 51.3329L17.4969 44.2362C17.0843 43.2021 16.9088 42.089 16.9831 40.9785C17.0574 39.868 17.3797 38.7884 17.9264 37.8187C18.4731 36.849 19.2302 36.014 20.1423 35.3748C21.0544 34.7356 22.0983 34.3086 23.1974 34.1249L30.7326 32.8556C32.0741 32.6313 33.3286 32.0452 34.3605 31.1606C35.3925 30.276 36.1628 29.1265 36.5882 27.8363L38.9796 20.5851C39.3282 19.5266 39.9101 18.5598 40.6823 17.7557C41.4544 16.9516 42.3974 16.3306 43.4417 15.9385C44.486 15.5464 45.6051 15.393 46.7168 15.4898C47.8284 15.5865 48.9043 15.9309 49.8654 16.4976L56.4129 20.366C57.5864 21.0581 58.9271 21.4162 60.2897 21.4017C61.6522 21.3871 62.9846 21.0005 64.1425 20.2836L70.6118 16.275C71.5603 15.6848 72.6298 15.3158 73.7409 15.1952C74.852 15.0747 75.9762 15.2058 77.0298 15.5788L77.0304 15.5749Z" fill="#252A2E"/>
</svg>
