<svg width="118" height="118" viewBox="0 0 150 200" fill="none" xmlns="http://www.w3.org/2000/svg">
<path d="M8.5241 84.1374C3.72773 81.331 2.17659 75.8326 5.13608 70.766C7.45287 66.8085 11.2005 65.1746 14.7132 66.0167L13.7162 70.9341C11.4845 70.3811 9.66597 70.8398 8.5008 72.838C7.10034 75.232 8.03076 77.7539 11.1494 79.5811C14.1844 81.3535 16.852 80.9489 18.258 78.5465C19.3986 76.6039 18.9313 74.7439 17.4054 73.0035L21.2401 69.813C23.6349 72.6723 24.0413 76.5603 21.708 80.5429C18.7047 85.6765 13.4237 87.0234 8.51314 84.1542L8.5241 84.1374Z" fill="#262A2D"/>
<path d="M21.8924 67.5027C18.9082 64.4846 19.0692 60.4421 22.1479 57.402C25.2431 54.3368 29.308 54.1897 32.2921 57.2079C35.321 60.2673 35.1156 64.3046 32.0204 67.3698C28.9417 70.4099 24.8289 70.4658 21.8869 67.5111L21.8924 67.5027ZM28.8864 60.6196C27.0937 58.812 25.556 58.6776 24.472 59.7488C23.4128 60.8004 23.5501 62.3247 25.3344 64.1268C27.1271 65.9344 28.6288 66.069 29.688 65.0175C30.772 63.9463 30.6652 62.43 28.8726 60.6225L28.8864 60.6196Z" fill="#262A2D"/>
<path d="M37.9606 61.1831L30.9878 50.0183L34.5227 47.8149C35.0037 48.6319 35.1657 49.7899 35.1259 51.019L36.6408 50.0746C36.123 48.1457 36.3787 46.1854 38.2084 45.0526C40.5043 43.6276 42.8529 44.2213 44.4801 46.829L49.1006 54.2299L45.1821 56.6723L40.9748 49.9365C40.2131 48.7084 39.2659 48.5304 38.3525 49.1037C36.7023 50.1268 37.6271 51.9637 38.2734 52.9846L41.8653 58.7436L37.9468 61.186L37.9606 61.1831Z" fill="#262A2D"/>
<path d="M50.7529 53.4592L46.413 41.0302L50.3513 39.6527C50.6333 40.5546 50.5458 41.7286 50.2449 42.9181L51.9264 42.3219C51.8351 40.3257 52.5244 38.47 54.5517 37.7655C57.0961 36.8738 59.263 37.9821 60.2769 40.8694L63.1597 49.1166L58.8038 50.639L56.185 43.1385C55.7134 41.7777 54.831 41.3911 53.8077 41.749C51.9769 42.3908 52.4786 44.3809 52.8763 45.5259L55.1172 51.9423L50.7613 53.4647L50.7529 53.4592Z" fill="#262A2D"/>
<path d="M63.4196 42.2582C62.9285 38.1712 65.4765 35.0106 69.4859 34.5284C74.2213 33.9598 77.02 37.0238 77.13 41.6382L68.0471 42.7306C68.3408 44.7279 69.4284 45.4401 70.8111 45.2818C72.2408 45.1064 72.8567 44.1112 73.1966 42.9352L77.4941 43.7653C76.8675 45.8174 75.2293 47.972 71.1922 48.46C66.9223 48.9748 63.9437 46.6417 63.4225 42.272L63.4196 42.2582ZM72.3923 39.5636C72.1419 38.1206 71.1954 37.3573 69.871 37.5179C68.5742 37.6728 67.827 38.5581 67.8343 40.1168L72.3923 39.5636Z" fill="#262A2D"/>
<path d="M78.9193 40.6583C79.3006 36.4255 82.5807 33.9356 86.7637 34.3201C90.2111 34.6413 92.4769 36.6392 93.0278 39.2113L88.6581 40.0792C88.3962 38.5809 87.5596 37.6863 86.3605 37.5824C84.8728 37.4448 83.6642 38.542 83.4377 41.0234C83.2112 43.5049 84.2235 44.8612 85.7113 44.9988C86.9854 45.1159 87.903 44.39 88.4894 42.8376L92.7533 44.3031C91.6085 47.0916 88.9944 48.6191 85.4665 48.293C81.1809 47.901 78.5405 44.869 78.9193 40.6583Z" fill="#262A2D"/>
<path d="M97.7135 50.1813C95.4146 49.5484 94.5377 47.8026 95.1516 45.551L96.7974 39.5881L94.2454 38.8851L95.0966 35.7967L97.6485 36.4997L98.7288 32.605L103.099 33.8173L102.019 37.712L105.054 38.5524L104.203 41.6409L101.167 40.8004L99.713 46.0877C99.5326 46.7465 99.7412 47.1581 100.431 47.3466L103.083 48.0793L102.161 51.4207L97.708 50.1897L97.7135 50.1813Z" fill="#262A2D"/>
</svg>
