<svg width="88" height="120" viewBox="0 0 88 120" fill="none"
    xmlns="http://www.w3.org/2000/svg">
    <path d="M86.08 56.5077C83.1341 50.3725 77.8651 47.2025 72.8234 45.5736C73.031 44.9006 73.2287 44.2373 73.4165 43.5838C78.6361 25.8025 78.9525 14.6733 74.4446 7.47493C71.6767 3.09543 67.07 0.383854 61.7713 0.0424677C56.4727 -0.308672 51.5991 1.52506 47.6646 5.27055C45.9149 6.93846 44.3628 9.00629 42.9986 11.4838C40.4284 7.79681 37.5517 5.19252 34.329 3.64165C32.0059 2.51995 29.5542 1.94448 27.0334 1.94448C23.9985 1.94448 21.023 2.7638 18.2155 4.3927C10.2477 8.99653 7.64779 18.8089 10.4948 33.5471C11.5427 38.9995 13.2134 44.5202 14.8346 49.202C7.39077 52.294 2.61603 58.4682 0.599377 67.6662C-1.18991 75.7814 1.08377 84.95 6.65924 92.1874C7.56871 93.3676 8.56715 94.4893 9.62491 95.5525C9.09109 100.79 10.9298 105.892 14.9335 109.549C22.1598 116.153 37.8779 119.167 49.4242 119.167C58.8353 119.167 66.3484 117.391 71.7459 113.89C75.8187 111.237 78.3791 107.374 78.9426 103.014C79.1205 101.629 79.1007 100.234 78.8833 98.8396C79.4072 98.0983 79.8817 97.318 80.3167 96.5084C83.5492 90.422 83.4405 83.9259 82.6398 79.2148C88.2251 72.6406 89.5795 63.8134 86.0701 56.5175L86.08 56.5077Z" fill="#BCC1FF"/>
    <path d="M59.3067 14.4532C59.5019 14.4532 59.697 14.4532 59.9011 14.471C62.1103 14.613 63.8671 15.651 64.9939 17.4787C67.6379 21.7464 67.0345 30.6366 63.1928 43.892C62.3144 46.9086 61.2763 50.147 60.0874 53.5097L59.7769 54.388H60.7085C70.3617 54.5034 73.8131 58.7621 75.0197 61.2997C76.8829 65.2302 75.9868 70.11 72.7395 73.7388C72.1717 74.3776 71.4707 74.9809 70.6634 75.5488L70.2552 75.8327L70.4061 76.3029C71.0449 78.246 72.8992 84.9979 69.9891 90.5521C69.2704 91.9184 68.2944 93.1339 67.0789 94.172L66.6619 94.5358L66.9369 95.0149C67.4959 95.9909 68.1258 97.4992 67.9129 99.1672C67.7621 100.321 67.141 101.989 64.9761 103.408C60.602 106.292 54.0542 106.895 49.334 106.895C39.0243 106.895 27.8184 103.985 23.8081 100.276C20.1171 96.8604 21.8384 92.3975 22.4506 91.1199L22.6901 90.6142L22.2377 90.2859C20.3478 88.9373 18.6887 87.3314 17.3046 85.5037C13.6935 80.7569 12.1941 74.8567 13.312 69.7285C15.5745 59.3122 22.0691 57.5378 28.1112 57.174L29.0428 57.1208L28.6879 56.2601C26.94 51.9659 23.7726 43.5726 22.2377 35.5075C20.3833 25.7745 21.4303 19.6702 25.3607 17.3723C26.6472 16.6181 27.9515 16.2366 29.238 16.2366C30.2672 16.2366 31.2787 16.4762 32.2635 16.9641C37.0724 19.3242 41.2513 27.5223 44.3566 40.6624L45.6697 40.5737C46.8409 28.8621 49.4849 20.7083 53.3089 17.0174C55.0568 15.3227 57.0708 14.471 59.2978 14.471" fill="#FC4747"/>
    <path d="M30.7285 58.2121C30.7285 58.2121 15.8761 24.2218 25.9374 18.3305C35.9987 12.4392 43.1854 33.9371 46.1754 57.0143C46.1754 57.0143 44.8002 14.6041 59.8301 15.5889C74.6825 16.556 55.731 61.8852 55.731 61.8852" stroke="#252A2E" stroke-width="4" stroke-linecap="round"/>
    <path d="M61.6846 61.0335C61.6846 61.0335 51.7386 59.6405 51.7563 68.9921C51.7741 78.8671 66.1918 79.3906 71.9145 73.0113C77.6372 66.632 75.9425 54.7518 58.7389 55.5592" stroke="#252A2E" stroke-width="4" stroke-linecap="round"/>
    <path d="M54.1605 75.8682C52.7143 86.4264 35.2267 87.1806 28.8829 73.5348" stroke="#252A2E" stroke-width="4" stroke-linecap="round"/>
    <path d="M44.8179 67.4837C44.8179 67.4837 47.1247 66.6409 51.7561 68.9832" stroke="#252A2E" stroke-width="4" stroke-linecap="round"/>
    <path d="M45.0576 68.9832C45.0576 68.9832 41.0739 58.2121 30.7286 58.2121C22.4418 58.2121 16.5327 60.2172 14.4122 69.968C12.2917 79.7188 20.2325 92.9565 36.1231 93.8437" stroke="#252A2E" stroke-width="4" stroke-linecap="round"/>
    <path d="M69.1374 76.0279C69.1374 76.0279 75.7207 92.7347 59.7238 96.4877" stroke="#252A2E" stroke-width="4" stroke-linecap="round"/>
    <path d="M24.0032 90.6319C24.0032 90.6319 20.5429 95.7247 24.5799 99.46C30.5777 105.014 54.826 108.776 64.3816 102.485C69.4478 99.1494 65.1713 94.4204 65.1713 94.4204" stroke="#252A2E" stroke-width="4" stroke-linecap="round"/>
</svg>