<svg width="27" height="27" viewBox="0 0 27 27" fill="none" xmlns="http://www.w3.org/2000/svg">
<path d="M26.4699 11.96L16.7399 10.24C16.5499 10.21 16.3999 10.07 16.3399 9.89003L13.2799 0.490025C13.1999 0.240025 12.9699 0.120025 12.7599 0.140025C12.5399 0.160025 12.3399 0.300025 12.2899 0.560025L10.5699 10.29C10.5399 10.48 10.3999 10.63 10.2199 10.69L0.819919 13.75C0.309919 13.92 0.359919 14.65 0.889919 14.74L10.6199 16.46C10.8099 16.49 10.9599 16.63 11.0199 16.81L14.0799 26.21C14.2399 26.72 14.9799 26.67 15.0699 26.14L16.7899 16.41C16.8199 16.22 16.9599 16.07 17.1399 16.01L26.5399 12.95C27.0499 12.79 26.9999 12.05 26.4699 11.96Z" fill="white"/>
</svg>