<svg width="314" height="129" viewBox="0 0 314 129" fill="none" xmlns="http://www.w3.org/2000/svg">
<path d="M55.7389 8.61013L13.8468 3.30513C13.203 3.21955 12.5515 3.39321 12.0358 3.78794C11.52 4.18267 11.1822 4.76612 11.0966 5.40993L4.33767 58.8596C4.25209 59.5034 4.42578 60.1548 4.82051 60.6706C5.21524 61.1863 5.79867 61.5241 6.44248 61.6097L20.7036 63.4148C21.3474 63.5004 21.9988 63.3267 22.5146 62.932C23.0303 62.5373 23.3682 61.9538 23.4537 61.31L25.5277 44.9025L45.4502 47.4189C46.094 47.5045 46.7454 47.3308 47.2612 46.9361C47.7769 46.5413 48.1147 45.9579 48.2003 45.3141L49.6075 34.1704C49.6931 33.5266 49.5194 32.8751 49.1247 32.3594C48.7299 31.8436 48.1465 31.5058 47.5027 31.4202L27.5802 28.9038L28.4663 21.8658L53.6515 25.057C54.2954 25.1426 54.9468 24.969 55.4626 24.5742C55.9783 24.1795 56.3161 23.596 56.4017 22.9522L57.8594 11.4283C57.9115 11.1032 57.8975 10.7709 57.8183 10.4514C57.739 10.1318 57.5961 9.83152 57.3982 9.56845C57.2002 9.30538 56.9513 9.08496 56.6662 8.9203C56.3811 8.75564 56.0657 8.65013 55.7389 8.61013V8.61013Z" fill="#F6DDFF" stroke="#252A2E" stroke-width="5"/>
<path d="M283.423 92.7456L265.861 59.4657L287.274 42.0961C287.764 41.6987 288.082 41.1274 288.161 40.5013C288.246 39.8575 288.073 39.2061 287.678 38.6903C287.283 38.1746 286.7 37.8368 286.056 37.7512L267.973 35.4627C267.629 35.4155 267.28 35.4416 266.948 35.5393C266.615 35.6371 266.307 35.8043 266.044 36.0299L246.705 53.2222C249.278 50.0349 250.878 46.1735 251.313 42.1004L252.133 35.9265C252.219 35.2827 252.045 34.6312 251.651 34.1155C251.256 33.5997 250.673 33.2619 250.029 33.1763L235.913 31.3906C235.269 31.305 234.618 31.4787 234.102 31.8734C233.586 32.2682 233.249 32.8516 233.163 33.4954L226.404 86.945C226.319 87.5889 226.492 88.2403 226.887 88.7561C227.282 89.2718 227.865 89.6096 228.509 89.6952L242.624 91.4809C243.268 91.5665 243.92 91.3928 244.435 90.9981C244.951 90.6034 245.289 90.0199 245.375 89.3761L247.37 73.5593L250.714 70.8253L261.563 92.7879C261.743 93.152 262.01 93.4658 262.341 93.701C262.672 93.9361 263.056 94.0853 263.459 94.1351L281.009 96.3526C281.508 96.4202 282.015 96.3292 282.46 96.0925C282.744 95.9374 282.995 95.7274 283.197 95.4747C283.4 95.2219 283.55 94.9316 283.64 94.6203C283.73 94.309 283.757 93.983 283.719 93.6612C283.682 93.3394 283.582 93.0282 283.423 92.7456V92.7456Z" fill="#F6DDFF" stroke="#252A2E" stroke-width="5"/>
<path d="M226.362 30.2034L212.393 28.437C211.749 28.3514 211.097 28.5251 210.582 28.9199C210.066 29.3146 209.728 29.898 209.642 30.5418L207.672 46.1067C206.914 51.419 207.386 56.8346 209.051 61.9357L195.043 27.506C194.878 27.1031 194.609 26.7514 194.264 26.4869C193.918 26.2225 193.509 26.0548 193.077 26.0012L172.783 23.4273C172.14 23.3417 171.488 23.5153 170.972 23.9101C170.457 24.3048 170.119 24.8883 170.033 25.5321L163.514 80.3393L151.509 22.3451C151.404 21.848 151.148 21.3957 150.774 21.0511C150.401 20.7064 149.93 20.4863 149.426 20.4213L130.346 18.0086C129.846 17.9453 129.339 18.0377 128.894 18.2733C128.448 18.5088 128.087 18.876 127.857 19.3247L104.937 66.871L104.455 59.0913C103.629 49.5117 98.7745 46.075 90.6337 44.4411C97.1801 44.7514 107.316 43.7024 108.815 31.8709C110.087 21.8045 102.78 14.5173 89.7499 12.8676L61.5998 9.30694C60.956 9.22136 60.3046 9.39503 59.7889 9.78976C59.2731 10.1845 58.9353 10.7679 58.8497 11.4117L52.088 64.8199C52.0025 65.4637 52.1761 66.1151 52.5709 66.6309C52.9656 67.1466 53.549 67.4844 54.1928 67.57L68.462 69.3762C69.1058 69.4617 69.7573 69.288 70.273 68.8933C70.7888 68.4985 71.1266 67.9152 71.2122 67.2714L73.398 50.0223L79.1241 50.7422C83.3965 51.3101 84.4666 52.49 84.5892 56.8953L85.0958 69.438C85.1183 70.021 85.3483 70.5768 85.7442 71.0053C86.1401 71.4339 86.6761 71.707 87.2555 71.7755L102.521 73.7058C102.911 73.6641 103.305 73.7164 103.67 73.8586L118.392 75.7249C118.903 75.7906 119.422 75.6938 119.874 75.4479C120.327 75.202 120.69 74.8197 120.913 74.3554L125.29 65.2781L141.761 67.3687L143.608 77.1993C143.703 77.7098 143.957 78.1771 144.334 78.5336C144.712 78.8902 145.193 79.1175 145.708 79.1829L161.354 81.1638C161.745 81.2129 162.142 81.1669 162.511 81.0296C162.881 80.8923 163.212 80.6679 163.476 80.3754L163.482 80.3269C163.661 80.6898 163.928 81.0027 164.257 81.2376C164.586 81.4725 164.969 81.622 165.37 81.673L179.332 83.4383C179.976 83.5239 180.627 83.3502 181.143 82.9555C181.659 82.5607 181.997 81.9773 182.082 81.3335L184.708 60.5856C185.508 54.0779 184.835 47.4737 182.74 41.261L200.412 84.8653C200.575 85.2694 200.844 85.6227 201.189 85.8886C201.534 86.1546 201.944 86.3235 202.377 86.378L218.938 88.4723C219.582 88.5579 220.233 88.3842 220.749 87.9895C221.265 87.5948 221.603 87.0113 221.688 86.3675L228.455 32.919C228.531 32.2824 228.355 31.6416 227.963 31.1338C227.572 30.6261 226.997 30.292 226.362 30.2034V30.2034ZM83.5235 35.9202L75.3516 34.8916L76.2856 27.5552L84.4575 28.5839C89.2639 29.2228 88.9575 31.8994 88.8392 32.7894C88.3977 36.0493 85.3209 36.1509 83.5235 35.9202V35.9202ZM132.543 50.1108L134.757 45.5384C136.209 42.1029 137.209 38.4936 137.732 34.8007C137.257 38.4995 137.286 42.2456 137.816 45.9368L138.721 50.899L132.543 50.1108Z" fill="#F6DDFF" stroke="#252A2E" stroke-width="5"/>
<path d="M62.2105 15.6792L20.3183 10.3742C19.6745 10.2886 19.0231 10.4623 18.5073 10.857C17.9916 11.2517 17.6538 11.8352 17.5682 12.479L10.8092 65.9286C10.7237 66.5724 10.8973 67.2239 11.2921 67.7396C11.6868 68.2554 12.2702 68.5932 12.914 68.6788L27.1752 70.4839C27.819 70.5694 28.4704 70.3957 28.9862 70.0009C29.5019 69.6062 29.8397 69.0229 29.9253 68.3791L31.9992 51.9715L51.9147 54.4788C52.5585 54.5643 53.2099 54.3907 53.7257 53.9959C54.2414 53.6012 54.5793 53.0178 54.6649 52.374L56.072 41.2303C56.1576 40.5864 55.9839 39.935 55.5892 39.4192C55.1945 38.9035 54.611 38.5657 53.9672 38.4801L34.0458 35.9556L34.9308 28.9256L60.1172 32.1088C60.761 32.1944 61.4124 32.0208 61.9282 31.626C62.4439 31.2313 62.7818 30.6478 62.8673 30.004L64.325 18.48C64.3746 18.1567 64.3589 17.8267 64.2789 17.5095C64.1988 17.1923 64.056 16.8944 63.8589 16.6334C63.6618 16.3723 63.4144 16.1533 63.1313 15.9894C62.8482 15.8255 62.5351 15.72 62.2105 15.6792V15.6792Z" fill="#FC4747" stroke="#252A2E" stroke-width="5"/>
<path d="M289.895 99.8148L272.331 66.5429L293.745 49.1653C294.121 48.8633 294.399 48.4571 294.545 47.9976C294.691 47.5382 294.698 47.0458 294.565 46.5824C294.432 46.119 294.166 45.705 293.799 45.3924C293.432 45.0798 292.981 44.8824 292.502 44.8251L274.419 42.5367C274.075 42.4894 273.726 42.5155 273.394 42.6133C273.061 42.7111 272.753 42.8783 272.491 43.1038L253.151 60.2961C255.724 57.1117 257.323 53.2529 257.758 49.1824L258.579 43.0085C258.664 42.3647 258.49 41.7133 258.096 41.1975C257.701 40.6818 257.118 40.344 256.474 40.2584L242.358 38.4726C241.714 38.3871 241.063 38.5608 240.547 38.9556C240.031 39.3503 239.694 39.9336 239.608 40.5774L232.849 94.0271C232.764 94.6709 232.937 95.3223 233.332 95.8381C233.727 96.3538 234.31 96.6916 234.954 96.7772L249.069 98.563C249.713 98.6485 250.365 98.4749 250.88 98.0801C251.396 97.6854 251.734 97.102 251.82 96.4581L253.815 80.6414L257.158 77.9154L268.008 99.8699C268.188 100.234 268.455 100.548 268.786 100.783C269.117 101.018 269.501 101.167 269.904 101.217L287.453 103.443C287.899 103.501 288.352 103.435 288.764 103.253C289.175 103.07 289.528 102.777 289.784 102.407C290.04 102.037 290.189 101.604 290.215 101.155C290.24 100.705 290.142 100.257 289.93 99.8605L289.895 99.8148Z" fill="#FC4747" stroke="#252A2E" stroke-width="5"/>
<path d="M232.834 37.2725L218.864 35.5061C218.22 35.4205 217.569 35.5942 217.053 35.9889C216.537 36.3836 216.2 36.9671 216.114 37.6109L214.143 53.1839C213.383 58.4962 213.855 63.912 215.522 69.0129L201.513 34.5831C201.349 34.1802 201.08 33.8286 200.734 33.5641C200.389 33.2996 199.979 33.132 199.547 33.0784L179.253 30.5124C178.609 30.4269 177.958 30.6005 177.442 30.9953C176.926 31.39 176.588 31.9734 176.503 32.6172L169.982 87.4326L157.979 29.4303C157.874 28.9332 157.617 28.481 157.244 28.1363C156.871 27.7917 156.399 27.5715 155.896 27.5065L136.816 25.0938C136.316 25.0305 135.809 25.1229 135.363 25.3584C134.918 25.594 134.556 25.9612 134.327 26.4099L111.406 73.9563L110.925 66.1766C110.097 56.6051 105.244 53.1602 97.1031 51.5263C103.649 51.8366 113.786 50.7877 115.284 38.9562C116.556 28.8898 109.248 21.6107 96.2193 19.9529L68.0703 16.3841C67.4265 16.2985 66.7751 16.4722 66.2593 16.8669C65.7436 17.2616 65.4058 17.8451 65.3202 18.4889L58.5532 71.9374C58.4676 72.5812 58.6412 73.2327 59.036 73.7484C59.4307 74.2642 60.0141 74.602 60.658 74.6876L74.9272 76.4938C75.571 76.5793 76.2224 76.4057 76.7381 76.0109C77.2539 75.6162 77.5917 75.0328 77.6773 74.389L79.8631 57.1399L85.5838 57.9003C89.8562 58.4682 90.9274 59.64 91.05 64.0453L91.5567 76.5879C91.5792 77.1709 91.8091 77.7268 92.205 78.1553C92.601 78.5839 93.1369 78.8569 93.7163 78.9254L108.982 80.8557C109.372 80.817 109.765 80.8693 110.131 81.0085L124.853 82.8749C125.364 82.9406 125.883 82.8437 126.335 82.5979C126.788 82.352 127.151 81.9697 127.374 81.5054L131.75 72.4362L148.222 74.5187L150.068 84.3573C150.164 84.8665 150.419 85.3321 150.797 85.6871C151.174 86.0421 151.655 86.2682 152.169 86.3329L167.815 88.3138C168.205 88.3637 168.601 88.3188 168.971 88.183C169.34 88.0472 169.671 87.8243 169.936 87.5335L169.942 87.485C170.122 87.8465 170.389 88.1579 170.719 88.3913C171.048 88.6248 171.43 88.773 171.831 88.823L185.793 90.5883C186.437 90.6738 187.088 90.5002 187.604 90.1055C188.12 89.7107 188.457 89.1273 188.543 88.4835L191.17 67.7275C191.97 61.2198 191.297 54.6156 189.202 48.4028L206.874 92.0071C207.037 92.4113 207.305 92.7646 207.651 93.0305C207.996 93.2965 208.406 93.4654 208.839 93.5199L225.399 95.6223C226.043 95.7079 226.694 95.5342 227.21 95.1395C227.726 94.7448 228.064 94.1613 228.149 93.5175L234.911 40.1094C234.966 39.7862 234.956 39.4551 234.88 39.136C234.805 38.8168 234.666 38.516 234.473 38.2514C234.279 37.9868 234.034 37.7639 233.753 37.5957C233.471 37.4275 233.159 37.3176 232.834 37.2725ZM89.9951 42.9893L81.8242 41.9525L82.7582 34.6162L90.9291 35.6529C95.7355 36.2918 95.4291 38.9684 95.3108 39.8585C94.8692 43.1184 91.7925 43.22 89.994 42.9974L89.9951 42.9893ZM139.016 57.1717L141.229 52.5994C142.682 49.1641 143.682 45.5547 144.205 41.8617C143.73 45.5632 143.758 49.312 144.288 53.0059L145.194 57.96L139.016 57.1717Z" fill="#FC4747" stroke="#252A2E" stroke-width="5"/>
<path d="M68.4668 24.3667L26.5736 19.0698C25.9298 18.9842 25.2784 19.1579 24.7626 19.5526C24.2469 19.9473 23.909 20.5308 23.8235 21.1746L17.0645 74.6242C16.9789 75.268 17.1526 75.9195 17.5473 76.4352C17.9421 76.951 18.5255 77.2888 19.1693 77.3743L33.4304 79.1794C34.0742 79.265 34.7257 79.0914 35.2414 78.6966C35.7572 78.3019 36.095 77.7184 36.1806 77.0746L38.2556 60.659L58.177 63.1836C58.8208 63.2692 59.4722 63.0954 59.988 62.7007C60.5037 62.306 60.8416 61.7226 60.9271 61.0788L62.3332 49.9432C62.4188 49.2994 62.2451 48.648 61.8504 48.1322C61.4557 47.6164 60.8722 47.2786 60.2284 47.1931L40.307 44.6684L41.1921 37.6385L66.3784 40.8217C67.0222 40.9073 67.6736 40.7336 68.1894 40.3389C68.7051 39.9442 69.043 39.3607 69.1285 38.7169L70.5862 27.1929C70.6395 26.8673 70.6265 26.5343 70.5479 26.2139C70.4692 25.8934 70.3267 25.5922 70.1287 25.3283C69.9308 25.0643 69.6815 24.843 69.396 24.6778C69.1104 24.5126 68.7943 24.4068 68.4668 24.3667V24.3667Z" fill="#BCC1FF" stroke="#252A2E" stroke-width="5"/>
<path d="M296.151 108.502L278.588 75.2301L300.002 57.8526C300.377 57.5505 300.656 57.1444 300.801 56.6849C300.947 56.2254 300.954 55.7331 300.822 55.2697C300.689 54.8062 300.422 54.3923 300.055 54.0797C299.688 53.7671 299.237 53.5697 298.759 53.5124L280.675 51.2239C280.332 51.1767 279.983 51.2028 279.65 51.3006C279.318 51.3983 279.01 51.5655 278.747 51.7911L259.408 68.9833C261.98 65.799 263.58 61.9402 264.014 57.8697L264.835 51.6958C264.921 51.052 264.747 50.4005 264.352 49.8848C263.957 49.369 263.374 49.0312 262.73 48.9456L248.615 47.1599C247.971 47.0743 247.319 47.248 246.804 47.6427C246.288 48.0374 245.95 48.6209 245.865 49.2647L239.111 102.674C239.025 103.318 239.199 103.969 239.594 104.485C239.989 105.001 240.572 105.338 241.216 105.424L255.33 107.218C255.974 107.303 256.625 107.13 257.141 106.735C257.657 106.34 257.995 105.757 258.08 105.113L260.075 89.3042L263.419 86.5703L274.269 108.525C274.448 108.889 274.716 109.203 275.047 109.438C275.378 109.673 275.762 109.822 276.165 109.872L293.713 112.098C294.213 112.16 294.72 112.066 295.165 111.829C295.449 111.676 295.7 111.468 295.903 111.218C296.106 110.968 296.258 110.68 296.349 110.371C296.441 110.061 296.471 109.737 296.437 109.417C296.403 109.096 296.306 108.785 296.151 108.502Z" fill="#BCC1FF" stroke="#252A2E" stroke-width="5"/>
<path d="M239.09 45.9599L225.121 44.1936C224.477 44.1081 223.825 44.2817 223.31 44.6765C222.794 45.0712 222.456 45.6546 222.371 46.2985L220.4 61.8634C219.641 67.1756 220.112 72.5915 221.78 77.6923L207.77 43.2706C207.606 42.8664 207.338 42.5132 206.993 42.2472C206.648 41.9813 206.238 41.8123 205.805 41.7578L185.51 39.1919C184.867 39.1063 184.215 39.28 183.699 39.6747C183.184 40.0694 182.846 40.6529 182.76 41.2967L176.24 96.112L164.259 38.1211C164.155 37.624 163.898 37.1717 163.525 36.827C163.151 36.4823 162.68 36.2623 162.176 36.1973L143.098 33.7765C142.598 33.7132 142.09 33.8056 141.645 34.0411C141.2 34.2767 140.838 34.6439 140.609 35.0926L117.688 82.6389L117.208 74.8511C116.38 65.2796 111.526 61.8429 103.386 60.2009C109.931 60.5192 120.069 59.4622 121.567 47.6307C122.839 37.5643 115.531 30.2852 102.502 28.6274L74.3522 25.0668C73.7083 24.9812 73.0569 25.1549 72.5412 25.5496C72.0254 25.9443 71.6876 26.5278 71.602 27.1716L64.835 80.6201C64.7494 81.2639 64.9231 81.9154 65.3178 82.4311C65.7125 82.9469 66.296 83.2847 66.9398 83.3703L81.209 85.1764C81.8528 85.262 82.5042 85.0883 83.02 84.6935C83.5357 84.2988 83.8735 83.7154 83.9591 83.0716L86.1449 65.8225L91.8657 66.583C96.138 67.1509 97.2092 68.3226 97.3318 72.7279L97.8385 85.2706C97.861 85.8536 98.0909 86.4095 98.4868 86.838C98.8828 87.2666 99.4187 87.5396 99.9981 87.608L115.264 89.5384C115.653 89.4966 116.047 89.549 116.413 89.6911L131.136 91.5494C131.647 91.6152 132.165 91.5183 132.618 91.2725C133.07 91.0266 133.434 90.6443 133.657 90.18L138.033 81.1107L154.505 83.1933L156.351 93.0319C156.447 93.5411 156.702 94.0067 157.08 94.3617C157.457 94.7167 157.937 94.9428 158.452 95.0075L174.097 96.9884C174.488 97.0383 174.884 96.9934 175.253 96.8576C175.623 96.7217 175.954 96.4989 176.219 96.208L176.225 96.1595C176.405 96.5211 176.672 96.8323 177.002 97.0658C177.331 97.2993 177.713 97.4476 178.114 97.4976L192.076 99.2629C192.72 99.3484 193.371 99.1748 193.887 98.78C194.403 98.3853 194.74 97.8019 194.826 97.1581L197.453 76.4021C198.254 69.897 197.581 63.2952 195.484 57.0855L213.156 100.69C213.319 101.094 213.587 101.447 213.933 101.713C214.278 101.979 214.688 102.148 215.121 102.203L231.682 104.297C232.326 104.382 232.977 104.209 233.493 103.814C234.009 103.419 234.346 102.836 234.432 102.192L241.199 48.7435C241.246 48.4219 241.229 48.0942 241.148 47.7794C241.067 47.4646 240.924 47.169 240.728 46.9099C240.532 46.6508 240.286 46.4333 240.005 46.2702C239.724 46.1071 239.413 46.0016 239.09 45.9599V45.9599ZM96.2516 51.6767L88.0807 50.6401L89.0147 43.3037L97.1856 44.3404C101.992 44.9793 101.686 47.656 101.567 48.5461C101.126 51.8059 98.0479 51.9155 96.2505 51.6848L96.2516 51.6767ZM145.271 65.8673L147.486 61.2868C148.938 57.8515 149.939 54.2421 150.461 50.5492C149.986 54.2507 150.014 57.9994 150.545 61.6934L151.451 66.6475L145.271 65.8673Z" fill="#BCC1FF" stroke="#252A2E" stroke-width="5"/>
<path d="M74.722 33.0622L32.8298 27.7572C32.186 27.6716 31.5346 27.8452 31.0188 28.24C30.5031 28.6347 30.1653 29.2181 30.0797 29.862L23.3207 83.3116C23.2351 83.9554 23.4088 84.6068 23.8036 85.1226C24.1983 85.6383 24.7817 85.9762 25.4255 86.0617L39.6866 87.8668C40.3305 87.9524 40.9819 87.7787 41.4976 87.384C42.0134 86.9893 42.3512 86.4058 42.4368 85.762L44.5118 69.3464L64.4359 71.7889C65.0797 71.8745 65.7311 71.7008 66.2469 71.3061C66.7626 70.9114 67.1004 70.3279 67.186 69.6841L68.5932 58.5404C68.6788 57.8966 68.5051 57.2452 68.1104 56.7294C67.7156 56.2137 67.1322 55.8758 66.4884 55.7903L46.5659 53.2738L47.452 46.2358L72.6373 49.4271C73.2811 49.5127 73.9325 49.339 74.4483 48.9443C74.964 48.5496 75.3018 47.9661 75.3874 47.3223L76.8451 35.7983C76.8854 35.4792 76.8624 35.1553 76.7775 34.8451C76.6926 34.535 76.5474 34.2446 76.3502 33.9905C76.1531 33.7364 75.9078 33.5236 75.6285 33.3643C75.3491 33.2051 75.041 33.1024 74.722 33.0622Z" fill="#D9FF43" stroke="#252A2E" stroke-width="5"/>
<path d="M302.407 117.189L284.844 83.9176L306.258 66.54C306.633 66.238 306.912 65.8318 307.058 65.3723C307.203 64.9128 307.21 64.4206 307.078 63.9572C306.945 63.4937 306.678 63.0797 306.312 62.7671C305.945 62.4545 305.493 62.2572 305.015 62.1999L286.931 59.9114C286.588 59.8642 286.239 59.8903 285.906 59.9881C285.574 60.0858 285.266 60.253 285.003 60.4786L265.664 77.6709C268.239 74.4881 269.839 70.6285 270.27 66.5572L271.091 60.3833C271.177 59.7395 271.003 59.088 270.608 58.5723C270.214 58.0565 269.63 57.7187 268.986 57.6331L254.871 55.8474C254.227 55.7618 253.576 55.9355 253.06 56.3302C252.544 56.7249 252.206 57.3084 252.121 57.9522L245.362 111.402C245.276 112.046 245.45 112.697 245.845 113.213C246.239 113.729 246.823 114.066 247.467 114.152L261.582 115.938C262.226 116.023 262.877 115.85 263.393 115.455C263.909 115.06 264.247 114.477 264.332 113.833L266.326 98.0241L269.671 95.2902L280.52 117.253C280.703 117.614 280.971 117.926 281.301 118.161C281.632 118.395 282.014 118.546 282.416 118.6L299.965 120.817C300.411 120.876 300.865 120.81 301.276 120.627C301.688 120.445 302.041 120.152 302.297 119.782C302.553 119.412 302.702 118.978 302.727 118.529C302.753 118.08 302.654 117.632 302.442 117.235L302.407 117.189Z" fill="#D9FF43" stroke="#252A2E" stroke-width="5"/>
<path d="M245.344 54.6636L231.376 52.8891C230.732 52.8035 230.08 52.9772 229.565 53.3719C229.049 53.7666 228.711 54.3501 228.625 54.9939L226.655 70.5588C225.899 75.8712 226.371 81.2863 228.034 86.3878L214.026 51.9581C213.862 51.5539 213.594 51.2005 213.249 50.9346C212.904 50.6686 212.494 50.4997 212.061 50.4453L191.766 47.8794C191.123 47.7938 190.471 47.9674 189.955 48.3622C189.44 48.7569 189.102 49.3404 189.016 49.9842L182.497 104.791L170.492 46.7972C170.387 46.3001 170.131 45.8478 169.757 45.5032C169.384 45.1585 168.913 44.9384 168.409 44.8734L149.329 42.4608C148.829 42.3974 148.322 42.4898 147.877 42.7254C147.431 42.9609 147.07 43.3281 146.84 43.7768L123.92 91.3231L123.438 83.5434C122.612 73.9638 117.758 70.527 109.617 68.8931C116.163 69.2034 126.3 68.1464 127.799 56.3149C129.071 46.2485 121.763 38.9694 108.734 37.3116L80.5839 33.7509C79.9401 33.6653 79.2887 33.8391 78.7729 34.2338C78.2572 34.6285 77.9194 35.2119 77.8338 35.8557L71.0668 89.3043C70.9812 89.9481 71.1548 90.5995 71.5496 91.1153C71.9443 91.631 72.5278 91.9688 73.1716 92.0544L87.4408 93.8606C88.0846 93.9461 88.736 93.7725 89.2517 93.3777C89.7675 92.983 90.1053 92.3996 90.1909 91.7558L92.3767 74.5068L98.0974 75.2672C102.37 75.8351 103.441 77.0068 103.563 81.4202L104.069 93.9629C104.092 94.5459 104.322 95.1017 104.718 95.5302C105.113 95.9588 105.649 96.2319 106.229 96.3004L121.494 98.2307C121.884 98.189 122.278 98.2413 122.643 98.3835L137.367 100.242C137.876 100.308 138.394 100.212 138.846 99.9678C139.299 99.7235 139.662 99.343 139.886 98.8803L144.263 89.803L160.736 91.8855L162.582 101.724C162.676 102.235 162.93 102.702 163.308 103.059C163.685 103.415 164.166 103.642 164.681 103.708L180.327 105.689C180.718 105.738 181.115 105.692 181.485 105.554C181.854 105.417 182.185 105.193 182.449 104.9L182.456 104.852C182.636 105.213 182.903 105.525 183.232 105.758C183.562 105.992 183.944 106.14 184.345 106.19L198.305 107.963C198.949 108.049 199.601 107.875 200.116 107.48C200.632 107.086 200.97 106.502 201.056 105.858L203.683 85.1024C204.483 78.5973 203.81 71.9956 201.713 65.786L219.386 109.39C219.549 109.794 219.817 110.148 220.162 110.414C220.508 110.679 220.918 110.848 221.35 110.903L237.911 112.997C238.555 113.083 239.207 112.909 239.723 112.515C240.238 112.12 240.576 111.536 240.662 110.893L247.429 57.444C247.475 57.1244 247.459 56.7987 247.379 56.4857C247.3 56.1726 247.159 55.8785 246.965 55.62C246.771 55.3616 246.528 55.144 246.25 54.9799C245.972 54.8158 245.664 54.7082 245.344 54.6636V54.6636ZM102.505 60.3804L94.3335 59.3517L95.2686 52.0073L103.439 53.044C108.246 53.6829 107.939 56.3596 107.821 57.2496C107.381 60.5014 104.302 60.6192 102.505 60.3804ZM151.525 74.5709L153.739 69.9986C155.191 66.5631 156.191 62.9538 156.714 59.2609C156.239 62.9597 156.268 66.7058 156.798 70.397L157.704 75.3511L151.525 74.5709Z" fill="#D9FF43" stroke="#252A2E" stroke-width="5"/>
</svg>
