<svg width="134" height="126" viewBox="0 0 134 126" fill="none" xmlns="http://www.w3.org/2000/svg">
<g clip-path="url(#clip0_5311_4950)">
<path d="M56.3386 22.5589C59.4396 23.3898 62.402 24.9362 64.9623 27.2187C66.6715 28.741 68.1271 30.5298 69.2718 32.5166L73.4308 39.7356L80.6421 35.5633C85.7429 32.612 91.5572 32.0109 96.8317 33.4242C102.106 34.8375 106.841 38.2652 109.783 43.3715C110.928 45.3583 111.746 47.5161 112.205 49.7677C114.041 58.7741 109.912 67.9534 101.964 72.5518L60.5439 97.6852C59.6902 98.2091 58.698 98.3157 57.8059 98.0767C56.9563 97.849 56.1974 97.3112 55.703 96.4945C55.6771 96.4495 55.6512 96.4046 55.6305 96.3686L32.3301 53.8782C27.7393 45.9202 28.7602 35.908 34.8536 29.0263C40.401 22.7661 48.7985 20.5386 56.3457 22.5608M59.7666 9.79359C47.0441 6.38459 33.7223 10.3944 24.9797 20.2533C15.1324 31.3746 13.4678 47.4709 20.8133 60.3558L44.0515 102.738C44.1635 102.943 44.2826 103.15 44.4088 103.359C46.6476 107.068 50.1917 109.728 54.376 110.849C58.5602 111.97 63.4929 111.346 67.3726 108.987L108.685 83.9162C121.489 76.4302 128.1 61.6671 125.133 47.1121C124.389 43.4613 123.067 39.9827 121.215 36.7572C116.605 28.7561 109.161 23.0364 100.255 20.6499C92.8349 18.6618 85.1371 19.1839 78.1522 22.0865C76.8287 20.3711 75.3519 18.7742 73.7214 17.3262C69.7249 13.7771 64.8996 11.169 59.7596 9.79169L59.7666 9.79359Z" fill="#FF2C3C"/>
<path d="M60.5366 97.6836C58.869 98.6963 56.7053 98.1622 55.6957 96.4929C55.6698 96.4479 55.6439 96.403 55.6232 96.367L32.3228 53.8766C27.732 45.9186 28.7529 35.9064 34.8463 29.0247C42.6749 20.1981 56.1566 19.386 64.962 27.219C66.6713 28.7413 68.1269 30.5301 69.2716 32.5169L73.4306 39.7358L80.6419 35.5636C90.8436 29.6611 103.892 33.1573 109.783 43.3718C110.927 45.3586 111.745 47.5163 112.204 49.7679C114.041 58.7744 109.912 67.9537 101.964 72.5521L60.5437 97.6855L60.5366 97.6836Z" fill="#FBDCFF" stroke="#252A2D" stroke-width="5"/>
<path d="M53.252 50.164L59.5889 51.0106" stroke="#252A2E" stroke-width="5" stroke-linecap="round"/>
<path d="M58.0288 44.853L59.5637 50.7074" stroke="#252A2E" stroke-width="5" stroke-linecap="round"/>
<path d="M85.4938 58.803L79.5825 56.3677" stroke="#252A2E" stroke-width="5" stroke-linecap="round"/>
<path d="M84.0192 51.8169L79.7627 56.1195" stroke="#252A2E" stroke-width="5" stroke-linecap="round"/>
<path d="M51.2544 63.708C51.2544 63.708 51.6328 73.6238 63.2118 76.9392C74.7979 80.2566 80.8625 71.6415 80.8625 71.6415" stroke="#242A2E" stroke-width="5" stroke-linecap="round"/>
<path d="M80.2197 68.7705L84.2039 71.4877" stroke="#242A2E" stroke-width="5" stroke-linecap="round"/>
<path d="M53.1305 61.2079L48.3215 61.5689" stroke="#242A2E" stroke-width="5" stroke-linecap="round"/>
</g>
<defs>
<clipPath id="clip0_5311_4950">
<rect width="111" height="99" fill="white" transform="translate(26.3921 0.851074) rotate(15)"/>
</clipPath>
</defs>
</svg>
