<svg width="98" height="98" viewBox="0 0 98 98" fill="none" xmlns="http://www.w3.org/2000/svg">
<path d="M49 98C76.062 98 98 76.062 98 49C98 21.938 76.062 0 49 0C21.938 0 0 21.938 0 49C0 76.062 21.938 98 49 98Z" fill="#D5FCCC"/>
<path d="M48.5431 87.2332C69.5709 87.2332 86.6174 70.1868 86.6174 49.1589C86.6174 28.1311 69.5709 11.0846 48.5431 11.0846C27.5152 11.0846 10.4688 28.1311 10.4688 49.1589C10.4688 70.1868 27.5152 87.2332 48.5431 87.2332Z" fill="#6387E7" stroke="#252A2E" stroke-width="5"/>
<path d="M42.2105 39.5644C42.1941 34.8103 39.9573 30.964 37.2145 30.9735C34.4718 30.983 32.2617 34.8447 32.2782 39.5988C32.2946 44.3529 34.5314 48.1991 37.2742 48.1896C40.0169 48.1801 42.227 44.3185 42.2105 39.5644Z" fill="#252A2E"/>
<path d="M39.5619 39.5735C39.5505 36.2823 38.5037 33.6177 37.2237 33.6222C35.9438 33.6266 34.9154 36.2983 34.9268 39.5896C34.9382 42.8809 35.985 45.5454 37.265 45.541C38.5449 45.5366 39.5733 42.8648 39.5619 39.5735Z" stroke="#252A2E" stroke-width="5"/>
<path d="M25.6694 61.6247C25.6694 61.6247 30.1387 75.8933 48.338 76.1776C66.5374 76.4618 71.9769 61.4968 71.9769 61.4968" stroke="#252A2E" stroke-width="5" stroke-linecap="round"/>
<path d="M68.9501 58.8194L76.3146 62.3794" stroke="#252A2E" stroke-width="5" stroke-linecap="round"/>
<path d="M29.5687 58.2012L21.4677 64.0176" stroke="#252A2E" stroke-width="5" stroke-linecap="round"/>
<path d="M61.8075 38.3312L57.2437 43.3784" stroke="#252A2E" stroke-width="6" stroke-linecap="round"/>
<path d="M63.0002 45.0002L57.5 43.4999" stroke="#252A2E" stroke-width="6" stroke-linecap="round"/>
</svg>
