<svg width="247" height="106" viewBox="0 0 247 106" fill="none" xmlns="http://www.w3.org/2000/svg">
<rect x="11.0479" width="202.139" height="55" rx="27.5" transform="rotate(9.49107 11.0479 0)" fill="#BCC1FF" stroke="#252A2E" stroke-width="4"/>
<rect x="17.0952" y="7.09424" width="202.139" height="55" rx="27.5" transform="rotate(9.49107 17.0952 7.09424)" fill="#BCC1FF" stroke="#252A2E" stroke-width="4"/>
<rect x="25.4881" y="14.5807" width="202.139" height="55" rx="27.5" transform="rotate(9.49107 25.4881 14.5807)" fill="#BCC1FF" stroke="#252A2E" stroke-width="4"/>
<rect x="34.1921" y="12.9943" width="202.139" height="55" rx="27.5" transform="rotate(9.49107 34.1921 12.9943)" fill="#BCC1FF" stroke="#252A2E" stroke-width="4"/>
<rect x="47.4039" y="6.07812" width="202.139" height="55" rx="27.5" transform="rotate(9.49107 47.4039 6.07812)" fill="#BCC1FF" stroke="#252A2E" stroke-width="4"/>
<path d="M91.4768 48.2426C94.2976 48.7142 95.6335 46.9098 96.2817 45.8218L97.5048 46.0262C96.702 46.9465 96.2215 48.0017 96.106 48.6921L98.8085 49.1439L99.9958 42.0424L92.5984 40.8057L92.1829 43.2912L96.641 44.0366C96.2755 45.1313 95.0058 46.2979 92.6583 45.9054C90.4096 45.5295 88.8192 43.5197 89.3205 40.5213C89.825 37.5032 91.8775 36.0214 94.3235 36.4303C96.4737 36.7898 97.2687 38.2204 97.5473 39.8284L100.543 39.2545C100.189 36.8837 98.487 34.5714 94.7391 33.9448C90.5571 33.2456 86.8897 35.8972 86.2037 40.0003C85.432 44.6162 88.1036 47.6787 91.4768 48.2426ZM105.599 50.6035C108.597 51.1048 110.11 49.695 110.874 48.5249L108.53 47.1395C107.961 47.9974 107.217 48.6842 105.955 48.4731C104.752 48.2719 103.943 47.4068 104.155 45.6577L111.118 46.8218C111.945 43.5737 110.644 40.6797 107.33 40.1256C104.47 39.6474 101.987 41.402 101.469 44.499C100.928 47.7341 102.561 50.0957 105.599 50.6035ZM104.583 43.7016C104.988 42.4918 105.869 41.9497 106.994 42.1377C108.177 42.3356 108.772 43.1447 108.686 44.3875L104.583 43.7016ZM119.213 52.5551L119.586 50.3261L117.455 49.9699C116.844 49.8677 116.633 49.5486 116.732 48.9568L117.507 44.3212L120.072 44.7499L120.428 42.6195L117.863 42.1907L118.381 39.0937L115.58 38.6254L115.062 41.7224L112.991 41.3762L112.635 43.5066L114.706 43.8529L113.845 49.0014C113.588 50.5401 114.321 51.7373 115.919 52.0044L119.213 52.5551ZM128.173 54.3775C129.869 54.6612 130.978 53.7312 131.587 52.515L132.514 52.67C132.309 54.1363 132.585 54.7908 134.321 55.081L135.485 55.2755L135.841 53.1451L134.973 53C134.441 52.911 134.398 52.8024 134.48 52.3093L135.084 48.6994C135.519 46.0955 134.086 44.5988 131.325 44.1371C128.445 43.6556 126.56 44.8613 126.145 46.3736L128.578 47.348C128.969 46.4605 129.726 45.9381 131.008 46.1524C132.132 46.3404 132.54 46.9357 132.398 47.784L132.335 48.1588C129.008 47.9269 125.953 48.2476 125.492 51.0093C125.201 52.7452 126.358 54.0741 128.173 54.3775ZM129.483 52.4876C128.634 52.3458 128.27 51.859 128.378 51.208C128.596 49.9061 130.194 49.8083 132.045 49.8947L131.94 50.5259C131.672 52.1237 130.567 52.669 129.483 52.4876ZM139.77 55.9919L140.551 51.3168C140.726 50.2713 141.102 48.1442 143.055 48.4706C144.022 48.6322 144.541 49.2868 144.323 50.5887L143.321 56.5855L146.122 57.0538L147.213 50.5244C147.579 48.3348 146.637 46.6969 144.467 46.3342C142.889 46.0703 141.708 47.0693 141.02 48.394L139.797 48.1895C140.458 47.5093 141.014 46.7303 141.143 46.0826L138.618 45.6605L136.969 55.5236L139.77 55.9919ZM158.115 47.5412L158.557 44.8979L155.578 44.3999L155.136 47.0433L158.115 47.5412ZM156.163 58.7325L157.812 48.8694L155.011 48.4011L153.362 58.2642L156.163 58.7325ZM161.654 59.6505L162.435 54.9754C162.61 53.9299 162.986 51.8027 164.939 52.1292C165.905 52.2908 166.425 52.9454 166.207 54.2473L165.204 60.2441L168.006 60.7124L169.097 54.183C169.463 51.9934 168.52 50.3555 166.35 49.9928C164.772 49.7289 163.591 50.7279 162.904 52.0526L161.681 51.8481C162.342 51.1678 162.898 50.3889 163.026 49.7412L160.501 49.3191L158.853 59.1822L161.654 59.6505ZM177.428 62.2877L177.801 60.0587L175.671 59.7025C175.059 59.6003 174.849 59.2812 174.948 58.6894L175.723 54.0538L178.287 54.4825L178.643 52.3521L176.079 51.9233L176.597 48.8263L173.796 48.358L173.278 51.455L171.206 51.1088L170.85 53.2392L172.922 53.5855L172.061 58.734C171.804 60.2727 172.536 61.4699 174.134 61.737L177.428 62.2877ZM182.016 63.0546L182.649 59.2672C183.094 56.6042 184.11 55.9832 186.122 56.3196C186.458 56.3757 186.809 56.4548 187.197 56.5602L187.679 53.6802C187.524 53.634 187.386 53.611 187.09 53.5615C184.999 53.2119 183.996 54.2406 183.222 56.1998L182.039 56.0019C182.618 55.3282 183.217 54.1711 183.388 53.1454L180.863 52.7232L179.214 62.5863L182.016 63.0546ZM191.962 65.042C194.981 65.5466 197.49 63.8776 198.028 60.6622C198.555 57.506 196.732 55.072 193.714 54.5674C190.696 54.0628 188.179 55.7713 187.652 58.9275C187.144 61.9653 188.944 64.5374 191.962 65.042ZM192.335 62.813C190.994 62.5887 190.225 61.4868 190.565 59.455C190.904 57.4232 192.003 56.5525 193.344 56.7767C194.686 57.001 195.441 58.1818 195.102 60.2136C194.762 62.2454 193.677 63.0372 192.335 62.813Z" fill="black"/>
</svg>
