<svg width="116" height="116" viewBox="0 0 116 116" fill="none" xmlns="http://www.w3.org/2000/svg">
<path d="M98.836 31.1151C104.08 39.265 106.789 48.7869 106.621 58.4766C106.454 68.1663 103.416 77.5886 97.8937 85.5522C92.371 93.5157 84.6109 99.6628 75.5946 103.216C66.5784 106.769 56.711 107.569 47.2401 105.515C37.7693 103.46 29.1204 98.6431 22.3871 91.673C15.6538 84.703 11.1386 75.8928 9.41235 66.3567C7.68611 56.8205 8.82639 46.9866 12.689 38.0985C16.5516 29.2104 22.9631 21.6673 31.1127 16.423C36.5241 12.9407 42.5684 10.5584 48.9006 9.41211C55.2327 8.26587 61.7286 8.3781 68.0173 9.74241C74.3061 11.1067 80.2645 13.6964 85.5524 17.3635C90.8403 21.0307 95.3541 25.7034 98.836 31.1151Z" fill="#FC4747"/>
<path d="M91.5485 51.0051C91.5485 51.0051 83.7136 54.563 78.3916 53.9289C71.7106 53.1328 62.7982 44.183 62.7982 44.183L41.3573 47.1067L28.2003 35.899C25.2765 38.8227 23.637 36.8698 20.6331 44.1208C17.6292 51.3717 16.8427 59.3506 18.3729 67.0485C19.9031 74.7465 23.6814 81.8179 29.23 87.3688C34.7787 92.9197 41.8486 96.7008 49.546 98.2341C57.2433 99.7674 65.2224 98.9841 72.4746 95.9831C79.7268 92.9821 85.9264 87.8982 90.2896 81.3742C94.6528 74.8502 96.9837 67.179 96.9876 59.3304C96.9915 51.4819 96.3928 56.0715 92.0361 49.5431L91.5485 51.0051Z" fill="#F6DDFF"/>
<path d="M27.9984 35.0023C27.9984 35.0023 23.43 41.4096 22.1822 44.4201C19.2987 51.3764 18.5428 59.0316 20.0099 66.4176C21.4771 73.8035 25.1015 80.5886 30.4248 85.9148C35.7481 91.2409 42.5312 94.8689 49.9164 96.34C57.3016 97.8111 64.9571 97.0593 71.915 94.1795C78.8729 91.2998 84.8207 86.4214 89.0061 80.1615C93.1915 73.9015 95.4267 66.541 95.4289 59.0107C95.4299 55.9113 95.0525 52.8405 94.3165 49.863" stroke="#252A2E" stroke-width="5"/>
<path d="M56.7584 55.5705C57.5089 52.1185 56.5037 48.9693 54.5132 48.5365C52.5228 48.1038 50.3008 50.5514 49.5503 54.0034C48.7998 57.4555 49.805 60.6047 51.7954 61.0375C53.7859 61.4702 56.0079 59.0226 56.7584 55.5705Z" fill="#252A2E"/>
<path d="M54.1707 55.0079C54.6105 52.9853 54.5121 51.2468 53.951 51.1248C53.39 51.0028 52.5787 52.5436 52.139 54.5662C51.6993 56.5889 51.7976 58.3274 52.3586 58.4494C52.9196 58.5713 53.731 57.0306 54.1707 55.0079Z" stroke="#252A2E" stroke-width="5"/>
<path d="M66.6002 57.5315C67.3507 54.0794 66.3455 50.9302 64.355 50.4974C62.3646 50.0647 60.1426 52.5123 59.3921 55.9644C58.6416 59.4164 59.6468 62.5656 61.6372 62.9984C63.6277 63.4311 65.8497 60.9835 66.6002 57.5315Z" fill="#252A2E"/>
<path d="M64.0125 56.9689C64.4522 54.9463 64.3539 53.2077 63.7928 53.0857C63.2318 52.9638 62.4205 54.5045 61.9808 56.5272C61.541 58.5498 61.6394 60.2883 62.2004 60.4103C62.7614 60.5323 63.5728 58.9915 64.0125 56.9689Z" stroke="#252A2E" stroke-width="5"/>
<path d="M40.6553 70.6094C40.6553 70.6094 41.6077 79.7249 52.4996 82.0903C63.3916 84.4558 68.4757 76.1512 68.4757 76.1512" stroke="#252A2E" stroke-width="5" stroke-linecap="round"/>
<path d="M67.7041 73.5459L71.5471 75.8103" stroke="#252A2E" stroke-width="5" stroke-linecap="round"/>
<path d="M42.2425 68.1977L37.8251 68.8167" stroke="#252A2E" stroke-width="5" stroke-linecap="round"/>
<path d="M24.4248 34.1572C33.7477 36.3118 32.2292 42.8828 41.567 45.0408C50.9049 47.1988 52.4086 40.6243 61.7464 42.7823C71.0843 44.9403 69.5508 51.5078 78.8886 53.6658C88.2265 55.8238 89.7301 49.2494 99.068 51.4074" stroke="#252A2E" stroke-width="5"/>
</svg>
