<svg width="124" height="125" viewBox="0 0 124 125" fill="none" xmlns="http://www.w3.org/2000/svg">
  <path d="M59.2469 115.86C58.5983 115.632 57.9949 115.292 57.4646 114.855L48.0631 107.147C47.2479 106.478 46.322 105.957 45.3272 105.606C44.3311 105.255 43.2807 105.083 42.2247 105.097L30.0637 105.224C28.6781 105.239 27.3314 104.766 26.2602 103.887C25.1889 103.009 24.4615 101.782 24.2059 100.422L21.962 88.4816C21.5706 86.3955 20.4557 84.5136 18.8132 83.1665L9.40781 75.4577C8.33664 74.5788 7.60974 73.3511 7.35483 71.9904C7.09992 70.6297 7.33331 69.223 8.01399 68.0174L13.9827 57.434C15.0242 55.585 15.3801 53.4284 14.9877 51.3429L12.7432 39.4061C12.4879 38.0461 12.7205 36.6399 13.4001 35.4344C14.0797 34.229 15.1628 33.3012 16.4594 32.8142L27.845 28.5425C29.8338 27.7951 31.495 26.3715 32.5366 24.5219L38.5053 13.9384C39.186 12.7347 40.2693 11.8089 41.5653 11.3232C42.8614 10.8376 44.2874 10.8231 45.5935 11.2824L57.0694 15.318C59.0738 16.0229 61.2626 16 63.2513 15.2533L74.6369 10.9817C75.9333 10.4956 77.3598 10.481 78.6662 10.9405C79.9727 11.4 81.0756 12.3041 81.7815 13.4944L87.9815 23.9515C89.0637 25.7769 90.755 27.1637 92.7584 27.8684L104.234 31.904C105.543 32.3635 106.647 33.2691 107.354 34.4614C108.06 35.6538 108.323 37.0565 108.095 38.4228L106.112 50.4265C105.774 52.5108 106.179 54.6477 107.255 56.4654L113.455 66.8987C114.161 68.0899 114.424 69.4912 114.198 70.8564C113.972 72.2216 113.272 73.4635 112.22 74.364L102.992 82.2696C101.378 83.6507 100.305 85.5554 99.9584 87.6493L97.9776 99.6336C97.7517 100.999 97.0515 102.24 96 103.141C94.9485 104.041 93.6128 104.543 92.2275 104.557L80.062 104.688C77.9379 104.71 75.8897 105.478 74.2768 106.858L65.0448 114.763C64.2594 115.436 63.3102 115.891 62.2927 116.082C61.2752 116.272 60.2253 116.192 59.2486 115.848L59.2469 115.86Z" fill="#bcc1ff"/>
  <path d="M78.149 12.4039C77.1889 12.0683 76.1415 12.0796 75.1891 12.4357L63.8075 16.708C61.4711 17.5875 58.8987 17.6157 56.543 16.7876L45.0671 12.752C44.1081 12.4149 43.061 12.426 42.1098 12.7834C41.1585 13.1409 40.3639 13.8217 39.8657 14.7064L33.9009 25.2904C32.6753 27.4584 30.7254 29.1268 28.3922 30.0038L17.0255 34.2822C16.0751 34.6399 15.2814 35.3205 14.7836 36.2046C14.2858 37.0886 14.1157 38.1196 14.3032 39.1167L16.5393 51.0562C16.9998 53.505 16.5816 56.0373 15.3581 58.2082L9.39326 68.7922C8.89481 69.6761 8.72418 70.7073 8.9113 71.7047C9.09842 72.7021 9.63135 73.6019 10.4165 74.2461L19.8219 81.9549C21.7481 83.5368 23.0564 85.7444 23.5181 88.1916L25.7619 100.132C25.9018 100.878 26.2359 101.573 26.7305 102.149C27.2251 102.724 27.8628 103.16 28.5793 103.411C29.0533 103.58 29.5534 103.663 30.0564 103.657L42.2219 103.526C44.7154 103.505 47.1378 104.358 49.0679 105.935L58.4694 113.643C58.8585 113.965 59.302 114.214 59.7788 114.38C60.4945 114.631 61.2638 114.69 62.0095 114.551C62.7551 114.412 63.4508 114.079 64.0267 113.586L73.2587 105.681C75.1519 104.057 77.556 103.148 80.052 103.112L92.2169 102.985C93.233 102.975 94.2127 102.607 94.9841 101.947C95.7555 101.287 96.2692 100.376 96.435 99.3748L98.4158 87.3905C98.8223 84.9332 100.083 82.6979 101.976 81.0769L111.208 73.1719C111.979 72.511 112.492 71.5999 112.657 70.5985C112.822 69.5971 112.628 68.5696 112.11 67.6963L105.914 57.2397C104.645 55.0956 104.173 52.5741 104.58 50.1177L106.561 38.1334C106.728 37.1316 106.535 36.1031 106.018 35.2288C105.5 34.3545 104.69 33.6903 103.731 33.3531L92.2549 29.3176C89.9032 28.4884 87.9177 26.8607 86.6451 24.7186L80.4489 14.2621C79.9298 13.3895 79.1212 12.7258 78.1635 12.3862L78.149 12.4039ZM79.2035 9.42583C80.8592 10.0076 82.2569 11.1531 83.1514 12.6613L89.3515 23.1184C90.2451 24.6279 91.6428 25.7749 93.2988 26.3577L104.771 30.3888C106.429 30.9708 107.828 32.1178 108.723 33.6281C109.618 35.1385 109.951 36.9153 109.663 38.6461L107.68 50.6499C107.395 52.3781 107.728 54.1517 108.621 55.6595L114.81 66.111C115.704 67.6198 116.037 69.3946 115.751 71.1238C115.465 72.853 114.578 74.426 113.246 75.5666L104.009 83.4749C102.677 84.6145 101.791 86.1881 101.508 87.9176L99.5269 99.9019C99.2413 101.63 98.3558 103.201 97.0257 104.342C95.6956 105.483 94.0057 106.119 92.2524 106.14L80.0908 106.271C78.335 106.287 76.6417 106.923 75.3103 108.066L66.0782 115.971C64.7458 117.112 63.0532 117.747 61.2976 117.766C59.5421 117.784 57.836 117.184 56.4791 116.071L47.066 108.361C45.7089 107.248 44.0029 106.649 42.2474 106.667L30.0826 106.794C28.3289 106.813 26.6245 106.214 25.2681 105.103C23.9117 103.992 22.9901 102.44 22.6647 100.719L20.4209 88.7783C20.0971 87.0553 19.1758 85.5011 17.8188 84.3886L8.41344 76.6799C7.05246 75.5696 6.127 74.0156 5.7999 72.2915C5.4728 70.5673 5.76503 68.7834 6.62516 67.2537L12.59 56.6697C13.4518 55.1422 13.7469 53.3599 13.4232 51.6361L11.1794 39.6955C10.8553 37.9719 11.1499 36.1895 12.0114 34.6618C12.873 33.134 14.2463 31.9587 15.8899 31.3422L27.2716 27.07C28.9149 26.4533 30.2877 25.278 31.1489 23.7504L37.1137 13.1664C37.9747 11.6396 39.3468 10.4646 40.9892 9.84787C42.6316 9.23112 44.4393 9.21196 46.0949 9.79375L57.5714 13.8254C59.2251 14.4136 61.0337 14.3992 62.6773 13.7847L74.0629 9.51304C75.7096 8.88633 77.5254 8.86171 79.189 9.44353L79.2035 9.42583Z" fill="#252A2E"/>
  <path d="M59.1851 109.085C58.1733 108.729 57.279 108.102 56.6004 107.272L51.7696 101.403C50.7212 100.131 49.3442 99.1691 47.7879 98.6223C46.2315 98.0755 44.5551 97.9645 42.9404 98.3013L35.4946 99.8535C34.4464 100.071 33.3588 100.001 32.3469 99.6514C31.207 99.2437 30.216 98.5034 29.5024 97.5265C28.7682 96.51 28.3806 95.2848 28.3969 94.0318L28.4714 86.4113C28.4864 84.7638 28.0495 83.1435 27.2082 81.726C26.3669 80.3085 25.1532 79.1478 23.6987 78.3698L16.985 74.7664C16.2096 74.3503 15.5372 73.766 15.0173 73.0566C14.4975 72.3471 14.1432 71.5304 13.9807 70.6665C13.8181 69.8026 13.8513 68.9133 14.0779 68.064C14.3044 67.2148 14.7186 66.427 15.29 65.7586L20.2615 59.9467C21.3303 58.6965 22.0367 57.1784 22.3044 55.5562C22.5722 53.9341 22.3912 52.2695 21.7809 50.7423L18.9503 43.6455C18.6244 42.8291 18.4857 41.9502 18.5443 41.0733C18.6029 40.1964 18.8574 39.3439 19.2891 38.5782C19.7208 37.8126 20.3187 37.1533 21.039 36.6486C21.7592 36.144 22.5836 35.8069 23.4514 35.662L30.9827 34.3921C32.6098 34.1201 34.1312 33.4083 35.3818 32.3341C36.6323 31.2598 37.5645 29.864 38.0771 28.2981L40.4685 21.0468C40.7116 20.3038 41.1013 19.6171 41.6146 19.0272C42.1279 18.4372 42.7545 17.9561 43.4572 17.612C44.1526 17.2699 44.9084 17.0673 45.682 17.0158C46.4743 16.9591 47.2698 17.0669 48.0185 17.3324C48.3855 17.4618 48.739 17.6268 49.0739 17.8251L55.6265 21.6863C56.1317 21.9868 56.6659 22.2356 57.221 22.4291C58.4955 22.8775 59.8544 23.0349 61.1976 22.8897C62.5409 22.7444 63.8343 22.3002 64.9827 21.5898L71.4514 17.5851C72.2003 17.1211 73.044 16.8309 73.9202 16.7357C74.7965 16.6406 75.683 16.7429 76.5146 17.0352C77.3461 17.3275 78.1015 17.8023 78.7252 18.4247C79.3488 19.0471 79.8247 19.8012 80.118 20.6314L82.636 27.8011C83.0893 29.0752 83.8223 30.232 84.7812 31.1866C85.7402 32.1413 86.9008 32.8696 88.178 33.3182C88.7322 33.5109 89.3034 33.6509 89.8839 33.7362L97.4174 34.8227C97.8011 34.8783 98.1786 34.9712 98.5443 35.0999C99.2916 35.3607 99.9773 35.7723 100.559 36.3091C101.128 36.8328 101.59 37.4627 101.918 38.1634C102.251 38.8716 102.439 39.6396 102.469 40.4216C102.499 41.2035 102.371 41.9835 102.093 42.715L99.4158 49.8567C98.8385 51.3972 98.6938 53.066 98.9973 54.683C99.3008 56.2999 100.041 57.8035 101.138 59.0311L106.221 64.7226C106.807 65.3786 107.239 66.1574 107.484 67.0016C107.729 67.8458 107.782 68.7341 107.639 69.6012C107.495 70.4684 107.159 71.2923 106.655 72.0127C106.151 72.733 105.492 73.3314 104.726 73.7639L98.0709 77.523C96.6377 78.3324 95.4534 79.5175 94.6458 80.9504C93.8382 82.3833 93.438 84.0094 93.4886 85.6532L93.7177 93.3423C93.7448 94.2213 93.5744 95.0952 93.2189 95.8996C92.8635 96.7041 92.332 97.4187 91.6636 97.9909C90.9952 98.5632 90.2068 98.9786 89.3564 99.2065C88.506 99.4345 87.6152 99.4692 86.7494 99.3082L79.2572 97.9144C77.6364 97.6137 75.9643 97.7615 74.4219 98.3417C72.8795 98.9219 71.5255 99.9123 70.5065 101.206L65.7871 107.194C65.0148 108.18 63.9447 108.892 62.7354 109.223C61.5654 109.537 60.3273 109.489 59.1851 109.085Z" fill="#d9ff43"/>
  <path d="M75.9858 18.5389C75.377 18.3228 74.7273 18.2467 74.085 18.3162C73.4428 18.3857 72.8246 18.599 72.2764 18.9402L65.8027 22.9521C64.1579 23.9703 62.2653 24.5196 60.3299 24.5406C58.3945 24.5616 56.49 24.0534 54.8226 23.0711L48.2656 19.2131C48.0194 19.0672 47.759 18.9464 47.4886 18.8526C46.9467 18.6643 46.3727 18.5856 45.8001 18.621C45.2275 18.6565 44.6677 18.8055 44.1535 19.0592C43.6379 19.3116 43.1784 19.6648 42.8021 20.0978C42.4258 20.5309 42.1404 21.035 41.9628 21.5803L39.5714 28.8316C38.9699 30.6669 37.8758 32.3022 36.4082 33.5594C34.9407 34.8166 33.1558 35.6477 31.2478 35.9622L23.7165 37.2321C23.0793 37.3379 22.474 37.5851 21.9451 37.9554C21.4163 38.3257 20.9773 38.8097 20.6605 39.3718C20.3436 39.934 20.1571 40.5599 20.1144 41.2037C20.0718 41.8474 20.1742 42.4926 20.4141 43.0917L23.2448 50.1885C23.9647 51.9806 24.1788 53.9353 23.8638 55.8401C23.5487 57.7449 22.7166 59.5266 21.4579 60.9916L16.4903 66.8041C16.0715 67.2942 15.7679 67.8718 15.6018 68.4946C15.4357 69.1173 15.4114 69.7693 15.5306 70.4027C15.6498 71.0361 15.9095 71.635 16.2906 72.1552C16.6718 72.6754 17.1647 73.1038 17.7332 73.409L24.4469 77.0124C26.1539 77.9246 27.5776 79.2871 28.5629 80.9515C29.5482 82.6158 30.0572 84.5182 30.0345 86.4511L29.9644 94.0683C29.9544 94.9716 30.2284 95.8554 30.7479 96.5952C31.2673 97.3349 32.006 97.8934 32.8599 98.1919C33.6016 98.4532 34.4013 98.5037 35.1699 98.338L42.6156 96.7857C44.5114 96.3901 46.4797 96.5203 48.307 97.1623C50.1344 97.8043 51.7511 98.9336 52.9818 100.428L57.8127 106.296C58.2232 106.795 58.7404 107.195 59.3262 107.468C59.912 107.74 60.5515 107.878 61.1976 107.872C61.8438 107.865 62.4801 107.713 63.0599 107.429C63.6396 107.144 64.1479 106.733 64.5475 106.226L69.2698 100.218C70.4636 98.6971 72.0529 97.5325 73.8643 96.8517C75.6758 96.1709 77.6398 96.0001 79.5422 96.3578L87.035 97.7477C87.6695 97.8655 88.3224 97.84 88.9456 97.6729C89.5688 97.5058 90.1466 97.2015 90.6366 96.7822C91.1265 96.3629 91.5162 95.8394 91.777 95.2499C92.0378 94.6605 92.1632 94.0202 92.1438 93.376L91.9078 85.7335C91.8491 83.8046 92.3191 81.8966 93.2668 80.2154C94.2146 78.5341 95.6043 77.1434 97.2858 76.1935L103.947 72.4155C104.509 72.0979 104.992 71.6588 105.361 71.1305C105.73 70.6021 105.976 69.9979 106.081 69.3621C106.185 68.7263 106.146 68.0751 105.966 67.4563C105.786 66.8375 105.47 66.2667 105.04 65.7859L99.9542 60.11C98.664 58.6705 97.7935 56.9054 97.4375 55.0067C97.0815 53.108 97.2535 51.1483 97.9349 49.3409L100.612 42.1991C100.817 41.6634 100.911 41.0918 100.889 40.5188C100.867 39.9457 100.729 39.383 100.484 38.8643C100.241 38.345 99.8984 37.8787 99.4748 37.4922C99.0512 37.1057 98.5552 36.8067 98.0155 36.6124C97.7449 36.5198 97.4663 36.4522 97.1834 36.4104L89.6499 35.3239C88.9675 35.2234 88.2963 35.058 87.6453 34.8302C86.1474 34.3062 84.7867 33.4522 83.664 32.3316C82.5413 31.2111 81.6855 29.8526 81.16 28.3569L78.6419 21.1873C78.4284 20.5741 78.0784 20.0172 77.6184 19.5584C77.1583 19.0997 76.6001 18.7511 75.9858 18.5389ZM77.0303 15.5752C78.0849 15.9431 79.0429 16.5438 79.8331 17.3325C80.6232 18.1213 81.2251 19.0779 81.5938 20.1309L84.1119 27.3006C84.565 28.5843 85.3613 29.7198 86.4144 30.584C87.4675 31.4482 88.7373 32.0081 90.086 32.2031L97.6156 33.2891C98.7199 33.4485 99.7745 33.8531 100.702 34.4731C101.629 35.093 102.406 35.9126 102.974 36.8716C103.543 37.8305 103.889 38.9045 103.987 40.0144C104.085 41.1244 103.933 42.2421 103.542 43.2854L100.865 50.4272C100.388 51.6996 100.268 53.0782 100.518 54.414C100.769 55.7498 101.38 56.992 102.286 58.0063L107.369 63.6978C108.112 64.5286 108.659 65.5149 108.97 66.5843C109.281 67.6537 109.348 68.779 109.167 69.8776C108.986 70.9762 108.56 72.0201 107.922 72.9328C107.284 73.8455 106.449 74.6038 105.478 75.1519L98.8236 78.9111C97.642 79.5818 96.6664 80.5621 96.0019 81.7461C95.3374 82.9301 95.0093 84.273 95.053 85.6298L95.2856 93.2679C95.3199 94.381 95.1041 95.4875 94.654 96.5062C94.2039 97.5249 93.531 98.4299 92.6848 99.1547C91.8385 99.8795 90.8403 100.406 89.7635 100.695C88.6868 100.984 87.5588 101.028 86.4624 100.825L78.9702 99.4308C77.6314 99.1825 76.2502 99.3045 74.9761 99.7837C73.702 100.263 72.5835 101.081 71.7417 102.149L67.0223 108.137C66.3327 109.016 65.4542 109.729 64.4516 110.223C63.449 110.718 62.3479 110.981 61.2298 110.993C60.1116 111.005 59.0048 110.766 57.9912 110.294C56.9776 109.822 56.0831 109.129 55.3737 108.265L50.5389 102.396C49.673 101.345 48.5357 100.551 47.2503 100.099C45.9649 99.6476 44.5804 99.5558 43.2468 99.8338L35.801 101.386C34.7084 101.614 33.5784 101.594 32.4943 101.328C31.4101 101.062 30.3994 100.557 29.5365 99.8492C28.6736 99.1416 27.9804 98.2499 27.5081 97.2397C27.0357 96.2294 26.7962 95.1263 26.8071 94.0116L26.8811 86.3949C26.898 85.0348 26.542 83.6958 25.8516 82.5229C25.1612 81.3501 24.1628 80.388 22.9644 79.741L16.2507 76.1376C15.2665 75.6107 14.4132 74.8701 13.7534 73.9703C13.0937 73.0705 12.6443 72.0345 12.4385 70.9386C12.2326 69.8426 12.2755 68.7146 12.5639 67.6376C12.8524 66.5605 13.3791 65.5619 14.1052 64.7153L19.0716 58.9382C19.9549 57.9054 20.5387 56.6511 20.76 55.3108C20.9814 53.9705 20.8318 52.5951 20.3275 51.3332L17.4968 44.2364C17.0843 43.2024 16.9087 42.0893 16.983 40.9788C17.0573 39.8683 17.3797 38.7886 17.9263 37.8189C18.473 36.8493 19.2302 36.0142 20.1423 35.3751C21.0544 34.7359 22.0982 34.3088 23.1973 34.1252L30.7325 32.8558C32.074 32.6315 33.3285 32.0454 34.3605 31.1608C35.3925 30.2762 36.1628 29.1268 36.5881 27.8366L38.9795 20.5853C39.3282 19.5269 39.91 18.5601 40.6822 17.7559C41.4544 16.9518 42.3973 16.3309 43.4416 15.9387C44.4859 15.5466 45.6051 15.3933 46.7167 15.49C47.8284 15.5868 48.9043 15.9312 49.8653 16.4978L56.4128 20.3663C57.5864 21.0583 58.9271 21.4165 60.2896 21.4019C61.6521 21.3874 62.9845 21.0007 64.1425 20.2838L70.6117 16.2753C71.5602 15.6851 72.6297 15.316 73.7409 15.1955C74.852 15.0749 75.9761 15.206 77.0297 15.579L77.0303 15.5752Z" fill="#252A2E"/>
  <path d="M101.766 33.8852L102.062 33.4648C102.33 33.088 102.49 32.6453 102.525 32.1844C102.561 31.7234 102.469 31.2615 102.261 30.8484L102.031 30.3862L102.452 30.6862C102.83 30.9542 103.274 31.1144 103.736 31.1497C104.198 31.185 104.661 31.094 105.075 30.8864L105.534 30.6566L105.238 31.077C104.969 31.4533 104.808 31.8957 104.773 32.3566C104.737 32.8175 104.828 33.2794 105.035 33.6927L105.269 34.1556L104.844 33.8589C104.467 33.5896 104.024 33.4283 103.563 33.3924C103.101 33.3565 102.638 33.4474 102.225 33.6553L101.766 33.8852Z" fill="white"/>
  <path d="M111.366 25.6613C111.424 25.7276 111.458 25.8113 111.462 25.8989C111.466 25.9866 111.441 26.0731 111.391 26.1448L107 32.3279C106.961 32.3849 106.937 32.4511 106.932 32.52C106.927 32.5889 106.94 32.6579 106.97 32.7202L110.368 39.4999C110.406 39.5779 110.417 39.6664 110.399 39.7514C110.381 39.8364 110.336 39.9131 110.27 39.9696C110.204 40.0261 110.121 40.0591 110.034 40.0635C109.948 40.0679 109.862 40.0434 109.79 39.9939L103.597 35.6104C103.54 35.5713 103.473 35.5479 103.404 35.5426C103.335 35.5373 103.266 35.5503 103.204 35.5803L96.4077 38.9774C96.3289 39.0186 96.2385 39.0318 96.1512 39.015C96.0639 38.9982 95.9848 38.9523 95.927 38.8849C95.8692 38.8174 95.8359 38.7323 95.8328 38.6436C95.8296 38.5549 95.8566 38.4677 95.9095 38.3963L100.3 32.217C100.339 32.1601 100.362 32.0938 100.367 32.025C100.373 31.9561 100.36 31.887 100.33 31.8248L96.9331 25.0373C96.8931 24.9591 96.8805 24.8697 96.8974 24.7835C96.9143 24.6973 96.9597 24.6193 97.0263 24.5619C97.0929 24.5045 97.1768 24.4711 97.2647 24.467C97.3525 24.463 97.4392 24.4885 97.5109 24.5394L103.704 28.9268C103.761 28.9659 103.827 28.9893 103.896 28.9946C103.965 28.9999 104.034 28.9869 104.097 28.9569L110.884 25.5664C110.963 25.525 111.054 25.5119 111.142 25.5292C111.23 25.5464 111.309 25.593 111.366 25.6613Z" fill="white"/>
  <path d="M98.7944 85.5226L98.9732 85.0372C99.1353 84.6045 99.1761 84.1358 99.0912 83.6815C99.0062 83.2272 98.7988 82.8047 98.4912 82.4594L98.1511 82.0721L98.6371 82.2508C99.0705 82.4125 99.5398 82.4532 99.9946 82.3686C100.449 82.284 100.872 82.0772 101.218 81.7705L101.606 81.431L101.427 81.9163C101.265 82.3491 101.225 82.8178 101.31 83.2719C101.395 83.7261 101.602 84.1487 101.909 84.4942L102.249 84.8815L101.764 84.6989C101.33 84.538 100.86 84.4981 100.405 84.5834C99.9507 84.6687 99.5278 84.876 99.1821 85.183L98.7944 85.5226Z" fill="white"/>
  <path d="M105.94 75.0926C106.013 75.1421 106.067 75.2145 106.093 75.2983C106.12 75.382 106.117 75.4722 106.086 75.5544L103.45 82.6625C103.423 82.7302 103.415 82.8042 103.428 82.8761C103.44 82.9481 103.472 83.0151 103.521 83.0696L108.559 88.7425C108.617 88.8081 108.651 88.8908 108.656 88.9777C108.661 89.0645 108.637 89.1506 108.588 89.2224C108.538 89.2941 108.467 89.3475 108.384 89.3741C108.301 89.4007 108.211 89.399 108.129 89.3693L101.011 86.7336C100.943 86.7067 100.868 86.6995 100.796 86.7127C100.724 86.7259 100.657 86.759 100.603 86.8083L94.9244 91.8378C94.8588 91.895 94.776 91.9287 94.689 91.9338C94.602 91.9388 94.5158 91.9149 94.444 91.8657C94.3721 91.8165 94.3186 91.7449 94.2919 91.662C94.2653 91.5792 94.2669 91.4899 94.2966 91.4081L96.933 84.3C96.9602 84.2323 96.968 84.1583 96.9555 84.0864C96.9429 84.0145 96.9105 83.9475 96.8619 83.8929L91.8236 78.22C91.7641 78.1547 91.7283 78.0713 91.7221 77.9833C91.7159 77.8952 91.7397 77.8077 91.7894 77.7348C91.8392 77.6619 91.9121 77.6079 91.9964 77.5815C92.0808 77.5551 92.1715 77.5578 92.2541 77.5893L99.3726 80.2251C99.4404 80.2523 99.5145 80.2601 99.5865 80.2476C99.6585 80.2351 99.7256 80.2027 99.7802 80.1542L105.459 75.1247C105.524 75.0667 105.607 75.032 105.694 75.0262C105.781 75.0203 105.868 75.0437 105.94 75.0926Z" fill="white"/>
  <path d="M51.7863 46.0873L53.4271 41.4278L58.9554 43.3713L59.9253 40.6171L54.3969 38.6735L55.4332 35.7307L62.2634 38.1319L63.2665 35.2833L52.908 31.6417L48.258 44.8469L51.7863 46.0873ZM62.4914 50.1899C64.0197 50.7272 65.334 50.0657 66.3039 48.8167L67.5681 49.2611C66.7796 49.8743 66.2375 50.5105 66.0316 51.0953L69.0505 52.1567L72.3852 42.6866L69.0833 41.5258L67.323 46.5249C66.8779 47.7889 66.0863 48.5918 65.0297 48.2203C64.3127 47.9683 63.9627 47.3364 64.3347 46.28L66.3475 40.564L63.0267 39.3966L60.7814 45.7728C60.0175 47.9422 60.7366 49.5731 62.4914 50.1899ZM74.5302 54.0831L79.1802 40.8779L75.8972 39.7237L71.2471 52.9289L74.5302 54.0831ZM80.0026 56.0069L84.6526 42.8017L81.3696 41.6476L76.7196 54.8528L80.0026 56.0069ZM45.7779 62.313C48.8534 63.3942 50.9211 62.7007 51.592 60.7954C52.2098 59.041 51.1324 57.6446 49.2586 56.5831L47.9987 55.8857C47.134 55.3909 46.8863 55.0706 47.0457 54.6179C47.2052 54.1652 47.6832 53.9516 48.4568 54.2236C49.287 54.5154 49.7058 55.1927 49.6798 55.9891L52.8278 56.1418C52.8536 54.9849 52.1487 53.2531 49.3374 52.2648C46.5261 51.2764 44.5583 52.0474 43.9405 53.8018C43.2828 55.6694 44.1946 56.7532 46.2372 57.9376L47.3961 58.6207C48.192 59.0701 48.3433 59.4836 48.1971 59.8987C48.0244 60.3891 47.452 60.5695 46.6218 60.2776C45.1501 59.7603 45.2136 58.6166 45.2954 58.2637L42.0573 57.825C41.84 59.4658 42.9099 61.3047 45.7779 62.313ZM59.2831 54.786L60.2596 52.0129L56.8067 50.7991L55.8302 53.5722L59.2831 54.786ZM55.4799 65.4057L58.8146 55.9357L55.475 54.7617L52.1402 64.2317L55.4799 65.4057ZM64.6504 68.6297L65.5273 66.1396L63.5462 65.4431C63.0367 65.264 62.8967 64.9392 63.0694 64.4487L64.4577 60.506L66.7219 61.302L67.5323 59.0005L65.2682 58.2045L66.2912 55.2994L63.027 54.1518L62.004 57.057L60.0983 56.387L59.2879 58.6885L61.1936 59.3585L59.6259 63.8105C59.0346 65.4895 59.6127 66.8587 61.3297 67.4623L64.6504 68.6297ZM70.3377 70.9895C73.2622 72.0176 75.1123 71.0992 76.2331 69.9033L73.5719 67.8865C72.9466 68.5783 72.1858 69.0528 71.1481 68.688C70.1481 68.3365 69.6437 67.4807 70.1174 66.0149L76.7024 68.3299C78.1856 65.1413 77.3067 62.0975 73.8727 60.8903C70.9671 59.8688 68.1553 61.1699 67.1123 64.1316C65.9963 67.3009 67.2433 69.9017 70.3377 70.9895ZM70.8572 64.155C71.3812 63.0884 72.1843 62.7347 73.1277 63.0664C74.0899 63.4047 74.4745 64.2395 74.1591 65.3158L70.8572 64.155ZM35.1565 76.5989C38.232 77.6801 40.2997 76.9866 40.9706 75.0813C41.5884 73.3269 40.511 71.9305 38.6372 70.869L37.3773 70.1716C36.5126 69.6768 36.2649 69.3566 36.4243 68.9038C36.5837 68.4511 37.0618 68.2375 37.8354 68.5095C38.6656 68.8013 39.0844 69.4786 39.0584 70.275L42.2064 70.4277C42.2321 69.2708 41.5273 67.539 38.716 66.5507C35.9047 65.5623 33.9369 66.3333 33.3191 68.0877C32.6614 69.9553 33.5732 71.0391 35.6158 72.2235L36.7747 72.9066C37.5706 73.356 37.7219 73.7695 37.5757 74.1846C37.403 74.675 36.8306 74.8554 36.0004 74.5636C34.5287 74.0462 34.5922 72.9025 34.674 72.5497L31.4359 72.1109C31.2186 73.7517 32.2885 75.5906 35.1565 76.5989ZM46.1229 80.4966C49.255 81.5977 52.0968 80.3919 53.1862 77.2981C54.2624 74.2421 52.8089 71.5051 49.6768 70.404C46.5636 69.3096 43.734 70.5408 42.6579 73.5968C41.6017 76.5963 43.0097 79.4021 46.1229 80.4966ZM46.9599 78.1196C45.8844 77.7415 45.4786 76.6661 46.1229 74.8362C46.7673 73.0063 47.7643 72.4029 48.8398 72.781C49.9342 73.1657 50.3522 74.2666 49.7079 76.0965C49.0635 77.9264 48.0542 78.5044 46.9599 78.1196ZM57.7496 84.584C60.8816 85.6851 63.7234 84.4794 64.8129 81.3856C65.889 78.3295 64.4356 75.5926 61.3035 74.4914C58.1903 73.397 55.3607 74.6282 54.2845 77.6843C53.2283 80.6837 54.6363 83.4895 57.7496 84.584ZM58.5866 82.2071C57.5111 81.829 57.1052 80.7535 57.7496 78.9236C58.394 77.0938 59.391 76.4903 60.4665 76.8684C61.5608 77.2531 61.9789 78.3541 61.3345 80.1839C60.6902 82.0138 59.6809 82.5918 58.5866 82.2071ZM68.1118 87.8665L69.8323 82.9806C70.1379 82.1128 70.7881 80.6878 72.1843 81.1787C72.9579 81.4506 73.3013 82.1013 72.9359 83.1389L70.9231 88.8548L74.2439 90.0223L76.456 83.7404C77.2332 81.5332 76.4707 79.8448 74.5273 79.1616C72.9801 78.6176 71.6892 79.3934 70.7891 80.6246L69.5061 80.1735C70.2558 79.6103 70.8677 78.9562 71.1258 78.2837L68.1257 77.2291L64.791 86.6991L68.1118 87.8665Z" fill="#252A2E"/>
  <path d="M95.2818 60.3141L95.0649 59.8459C94.8729 59.4258 94.5699 59.0659 94.1884 58.8049C93.807 58.5439 93.3615 58.3917 92.9 58.3646L92.3845 58.3323L92.8527 58.1196C93.2728 57.9274 93.6326 57.6248 93.8936 57.2441C94.1547 56.8634 94.3073 56.4189 94.335 55.9582L94.3667 55.4473L94.5836 55.9155C94.7763 56.3351 95.0795 56.6946 95.4608 56.9555C95.8421 57.2164 96.2872 57.3689 96.7485 57.3968L97.2646 57.4253L96.7958 57.6418C96.3756 57.8341 96.0155 58.1366 95.7538 58.5171C95.4921 58.8976 95.3386 59.3418 95.3096 59.8026L95.2818 60.3141Z" fill="white"/>
  <path d="M92.9438 47.9075C93.0303 47.8908 93.1199 47.9036 93.1983 47.944C93.2766 47.9843 93.3391 48.0497 93.3758 48.1298L96.5429 55.0183C96.5726 55.0826 96.6191 55.1376 96.6776 55.1776C96.736 55.2177 96.8041 55.2412 96.8748 55.2457L104.448 55.7153C104.535 55.7204 104.618 55.7544 104.684 55.8119C104.75 55.8695 104.794 55.9472 104.811 56.033C104.827 56.1187 104.815 56.2075 104.775 56.2852C104.735 56.363 104.671 56.4254 104.592 56.4624L97.6938 59.6066C97.6288 59.6364 97.5732 59.6834 97.533 59.7425C97.4928 59.8016 97.4695 59.8705 97.4656 59.9418L97.014 67.5068C97.008 67.5934 96.9733 67.6756 96.9155 67.7404C96.8577 67.8053 96.7799 67.8491 96.6944 67.8651C96.609 67.8811 96.5206 67.8683 96.4431 67.8287C96.3657 67.7892 96.3036 67.7251 96.2665 67.6465L93.0993 60.758C93.0697 60.6937 93.0232 60.6386 92.9647 60.5986C92.9063 60.5586 92.8381 60.5351 92.7674 60.5306L85.1885 60.0759C85.1003 60.0713 85.0163 60.0372 84.9498 59.9791C84.8834 59.921 84.8386 59.8423 84.8224 59.7556C84.8063 59.6689 84.8199 59.5793 84.8609 59.5013C84.902 59.4233 84.9682 59.3614 85.0488 59.3255L91.9452 56.1652C92.0095 56.1356 92.0646 56.0892 92.1047 56.0309C92.1448 55.9725 92.1683 55.9045 92.1728 55.8339L92.6128 48.2672C92.619 48.1787 92.6552 48.0949 92.7153 48.0296C92.7755 47.9642 92.856 47.9212 92.9438 47.9075Z" fill="white"/>
</svg>