<svg width="32" height="33" viewBox="0 0 32 33" fill="none" xmlns="http://www.w3.org/2000/svg">
<ellipse cx="16" cy="16.5" rx="16" ry="16.5" fill="#0052B5"/>
<mask style="mask-type:alpha" maskUnits="userSpaceOnUse" x="0" y="0" width="32" height="33">
<ellipse cx="16" cy="16.5" rx="16" ry="16.5" fill="#0052B5"/>
</mask>
<g mask="url(#mask0_5921_4708)">
<path d="M8.34369 14.1787V1.67271C9.66117 0.91374 11.0909 0.34456 12.6 0V14.3118H31.8668C31.9547 15.0281 32 15.7585 32 16.5C32 17.2415 31.9547 17.9719 31.8668 18.6882L12.6 18.7619V33C11.1124 32.6603 9.70187 32.1024 8.4 31.3596L8.34369 18.7619L0.133178 18.6882C0.0453135 17.9719 0 17.2415 0 16.5C0 15.7125 0.0511054 14.9376 0.150008 14.1787H8.34369Z" fill="#FFDB44"/>
</g>
</svg>
