<?xml version="1.0" encoding="UTF-8"?>
<svg id="Layer_2" data-name="Layer 2" xmlns="http://www.w3.org/2000/svg" xmlns:xlink="http://www.w3.org/1999/xlink" viewBox="0 0 61.09 26">
  <defs>
    <style>
      .cls-1 {
        clip-path: url(#clippath);
      }

      .cls-2 {
        fill: none;
      }

      .cls-2, .cls-3, .cls-4, .cls-5 {
        stroke-width: 0px;
      }

      .cls-3 {
        fill-rule: evenodd;
      }

      .cls-3, .cls-4 {
        fill: #fff;
      }

      .cls-5 {
        fill: red;
      }
    </style>
    <clipPath id="clippath">
      <rect class="cls-2" x="35.09" width="26" height="26"/>
    </clipPath>
  </defs>
  <g id="Layer_1-2" data-name="Layer 1">
    <g>
      <g class="cls-1">
        <g>
          <path class="cls-3" d="m50.09,9h-8.79c-.67,0-1.21.54-1.21,1.21v10.57c0,.67.54,1.21,1.21,1.21h10.57c.67,0,1.21-.54,1.21-1.21v-8.79h2v8.56c0,1.35-1.09,2.44-2.44,2.44h-11.13c-1.35,0-2.44-1.09-2.44-2.44v-11.28s.7-2.44,2.04-2.29h8.96v2Z"/>
          <path class="cls-3" d="m58.09,10h-2v-3.94l-10.47,10.47-1.06-1.06,10.48-10.47h-3.94v-1h7v-.42s0,6.42,0,6.42Z"/>
        </g>
      </g>
      <g>
        <path class="cls-5" d="m32.32,6.03c-.38-1.41-1.5-2.53-2.91-2.91-2.58-.71-12.91-.71-12.91-.71,0,0-10.33,0-12.91.68-1.39.38-2.53,1.52-2.91,2.94-.68,2.58-.68,7.94-.68,7.94,0,0,0,5.38.68,7.94.38,1.41,1.5,2.53,2.91,2.91,2.61.71,12.91.71,12.91.71,0,0,10.33,0,12.91-.68,1.41-.38,2.53-1.5,2.91-2.91.68-2.58.68-7.94.68-7.94,0,0,.03-5.38-.68-7.96Z"/>
        <path class="cls-4" d="m13.09,9.02v9.89l8.59-4.95-8.59-4.95Z"/>
      </g>
    </g>
  </g>
</svg>