<svg width="124" height="124" viewBox="0 0 124 124" fill="none" xmlns="http://www.w3.org/2000/svg">
<path d="M49.2975 45.5725C52.656 46.7532 54.6921 45.3066 55.9409 41.76L58.7775 33.7049L55.2303 32.4578L52.1812 41.1167C51.7029 42.4749 51.1108 43.0724 50.1108 42.7208C48.8278 42.2698 48.9766 40.9441 49.6919 39.0332L45.9468 38.6493C44.9073 41.7819 45.8824 44.3719 49.2975 45.5725ZM60.9352 49.6638C64.0673 50.7649 66.9091 49.5592 67.9986 46.4654C69.0747 43.4093 67.6213 40.6724 64.4892 39.5712C61.376 38.4768 58.5464 39.708 57.4702 42.7641C56.414 45.7635 57.822 48.5693 60.9352 49.6638ZM61.7722 47.2869C60.6968 46.9088 60.2909 45.8333 60.9353 44.0034C61.5796 42.1736 62.5767 41.5701 63.6522 41.9482C64.7465 42.3329 65.1646 43.4339 64.5202 45.2637C63.8758 47.0936 62.8666 47.6716 61.7722 47.2869ZM75.1006 42.3266L76.0772 39.5535L72.6243 38.3396L71.6478 41.1127L75.1006 42.3266ZM71.2975 52.9463L74.6322 43.4763L71.2926 42.3022L67.9578 51.7722L71.2975 52.9463ZM76.7699 54.8702L78.4904 49.9843C78.796 49.1165 79.4462 47.6915 80.8424 48.1823C81.616 48.4543 81.9594 49.105 81.594 50.1426L79.5812 55.8585L82.902 57.026L85.1141 50.7441C85.8913 48.5369 85.1288 46.8484 83.1854 46.1652C81.6383 45.6213 80.3473 46.3971 79.4473 47.6283L78.1643 47.1772C78.9139 46.6139 79.5259 45.9599 79.7839 45.2874L76.7839 44.2327L73.4491 53.7027L76.7699 54.8702ZM50.9326 63.8068L51.8094 61.3167L49.8283 60.6202C49.3189 60.4411 49.1788 60.1163 49.3515 59.6258L50.7399 55.6831L53.004 56.4791L53.8145 54.1776L51.5503 53.3816L52.5733 50.4765L49.3092 49.329L48.2861 52.2341L46.3805 51.5642L45.57 53.8656L47.4757 54.5356L45.908 58.9876C45.3168 60.6666 45.8948 62.0358 47.6118 62.6394L50.9326 63.8068ZM55.6919 65.48L57.4124 60.5941C57.718 59.7263 58.3682 58.3013 59.7455 58.7855C60.5191 59.0575 60.8625 59.7082 60.4971 60.7457L58.4843 66.4617L61.824 67.6358L64.0361 61.3539C64.8133 59.1467 64.0319 57.4516 62.0885 56.7684C60.5602 56.2311 59.2693 57.0069 58.3692 58.2381L57.0673 57.7804C57.919 57.1682 58.8903 56.2165 59.6077 54.1791L60.2853 52.2549L57.0211 51.1074L52.3711 64.3126L55.6919 65.48ZM68.3017 70.2735C71.2263 71.3016 73.0763 70.3832 74.1972 69.1873L71.536 67.1705C70.9107 67.8623 70.1499 68.3368 69.1122 67.972C68.1122 67.6204 67.6077 66.7647 68.0815 65.2989L74.6664 67.6138C76.1497 64.4253 75.2708 61.3815 71.8368 60.1743C68.9311 59.1528 66.1194 60.4539 65.0764 63.4156C63.9604 66.5849 65.2074 69.1856 68.3017 70.2735ZM68.8213 63.4389C69.3453 62.3724 70.1483 62.0187 71.0917 62.3503C72.054 62.6886 72.4386 63.5234 72.1232 64.5997L68.8213 63.4389ZM39.6188 69.7933L41.7886 70.5562L42.599 68.2547L40.4292 67.4919L40.6883 66.7562C40.8676 66.2468 41.1738 66.1 41.6832 66.2791L43.5323 66.9292L44.3693 64.5522L41.2183 63.4445C39.4447 62.821 38.1803 63.5213 37.5692 65.2568L37.1839 66.351L35.4292 65.7341L34.6187 68.0356L36.3735 68.6524L33.8492 75.821L37.0945 76.9619L39.6188 69.7933ZM42.8928 79.3607C44.6475 79.9776 45.8808 79.2452 46.6966 78.1328L47.6778 78.4777C47.2638 79.7738 47.3643 80.5723 49.0246 81.156L50.5152 81.68L51.3456 79.322L50.6097 79.0633C50.1569 78.9041 50.1213 78.7644 50.2807 78.3116L51.3768 75.1989C52.2536 72.7088 51.0506 70.8867 48.2392 69.8983C45.3336 68.8768 43.1138 69.5805 42.3217 71.1676L45.199 72.7515C45.6799 71.9878 46.3687 71.6575 47.4065 72.0224C48.331 72.3474 48.5933 72.9272 48.3342 73.6629L48.2147 74.0025C44.7254 73.0726 41.7895 73.1005 40.9259 75.5529C40.3214 77.2695 41.1758 78.7571 42.8928 79.3607ZM45.0097 77.6245C44.3304 77.3857 44.0726 76.9135 44.2719 76.3476C44.6506 75.2723 45.9843 75.3384 47.6168 75.7003L47.4109 76.2851C46.9459 77.6056 45.9342 77.9496 45.0097 77.6245ZM55.0572 83.2768L56.8508 78.1834C57.1497 77.3345 57.7335 76.0981 58.9977 76.5425C59.7335 76.8012 60.0836 77.4331 59.7116 78.4895L57.6988 84.2055L60.9252 85.3397L62.7188 80.2463C63.0177 79.3974 63.6204 78.1677 64.8845 78.6121C65.6204 78.8708 65.9515 79.496 65.5795 80.5524L63.5667 86.2684L66.8875 87.4358L69.0796 81.2105C69.9033 78.8713 69.0011 77.2185 67.303 76.6215C66.0577 76.1837 64.7364 76.5036 63.7511 77.9168L62.7511 77.5653C63.0505 75.9321 62.2841 74.8571 61.1331 74.4525C59.6614 73.9351 58.5924 74.6828 57.8643 75.8473L56.5435 75.383C57.1002 75.0063 57.7444 74.3211 57.9957 73.6675L55.0712 72.6394L51.7365 82.1094L55.0572 83.2768ZM73.345 84.2152L76.1428 79.2204L77.1991 76.221L73.6141 74.9607L72.5579 77.9601L71.628 83.6116L73.345 84.2152ZM72.5868 89.4394L73.7559 86.1193L70.0955 84.8324L68.9264 88.1526L72.5868 89.4394Z" fill="#252A2E"/>
</svg>
